<?xml version="1.0" encoding="UTF-8" standalone="no"?>
<!DOCTYPE svg PUBLIC "-//W3C//DTD SVG 1.1//EN"
 "http://www.w3.org/Graphics/SVG/1.1/DTD/svg11.dtd">
<!-- Generated by graphviz version 2.36.0 (20140111.2315)
 -->
<!-- Title: /home/travis/build/AliceO2Group/Monitoring/include/Monitoring/Backend.h Pages: 1 -->
<svg width="2682pt" height="296pt"
 viewBox="0.00 0.00 2682.00 296.00" xmlns="http://www.w3.org/2000/svg" xmlns:xlink="http://www.w3.org/1999/xlink">
<g id="graph0" class="graph" transform="scale(1 1) rotate(0) translate(4 292)">
<title>/home/travis/build/AliceO2Group/Monitoring/include/Monitoring/Backend.h</title>
<!-- Node1 -->
<g id="node1" class="node"><title>Node1</title>
<polygon fill="#bfbfbf" stroke="black" points="1768,-246.5 1768,-287.5 1916,-287.5 1916,-246.5 1768,-246.5"/>
<text text-anchor="start" x="1776" y="-275.5" font-family="Helvetica,sans-Serif" font-size="10.00">/home/travis/build</text>
<text text-anchor="start" x="1776" y="-264.5" font-family="Helvetica,sans-Serif" font-size="10.00">/AliceO2Group/Monitoring</text>
<text text-anchor="middle" x="1842" y="-253.5" font-family="Helvetica,sans-Serif" font-size="10.00">/include/Monitoring/Backend.h</text>
</g>
<!-- Node2 -->
<g id="node2" class="node"><title>Node2</title>
<g id="a_node2"><a xlink:href="../../d0/d98/Monitoring_8h.html" target="_top" xlink:title="/home/travis/build\l/AliceO2Group/Monitoring\l/include/Monitoring/Monitoring.h">
<polygon fill="none" stroke="black" points="1139.5,-168.5 1139.5,-209.5 1294.5,-209.5 1294.5,-168.5 1139.5,-168.5"/>
<text text-anchor="start" x="1147.5" y="-197.5" font-family="Helvetica,sans-Serif" font-size="10.00">/home/travis/build</text>
<text text-anchor="start" x="1147.5" y="-186.5" font-family="Helvetica,sans-Serif" font-size="10.00">/AliceO2Group/Monitoring</text>
<text text-anchor="middle" x="1217" y="-175.5" font-family="Helvetica,sans-Serif" font-size="10.00">/include/Monitoring/Monitoring.h</text>
</a>
</g>
</g>
<!-- Node1&#45;&gt;Node2 -->
<g id="edge1" class="edge"><title>Node1&#45;&gt;Node2</title>
<path fill="none" stroke="midnightblue" d="M1757.87,-259.332C1654.11,-250.574 1472.5,-233.505 1318,-210 1310.4,-208.844 1302.51,-207.512 1294.63,-206.096"/>
<polygon fill="midnightblue" stroke="midnightblue" points="1757.71,-262.831 1767.97,-260.179 1758.3,-255.856 1757.71,-262.831"/>
</g>
<!-- Node17 -->
<g id="node17" class="node"><title>Node17</title>
<g id="a_node17"><a xlink:href="../../db/df5/ApMonBackend_8h.html" target="_top" xlink:title="/home/travis/build\l/AliceO2Group/Monitoring\l/src/Backends/ApMonBackend.h">
<polygon fill="none" stroke="black" points="2059,-168.5 2059,-209.5 2219,-209.5 2219,-168.5 2059,-168.5"/>
<text text-anchor="start" x="2067" y="-197.5" font-family="Helvetica,sans-Serif" font-size="10.00">/home/travis/build</text>
<text text-anchor="start" x="2067" y="-186.5" font-family="Helvetica,sans-Serif" font-size="10.00">/AliceO2Group/Monitoring</text>
<text text-anchor="middle" x="2139" y="-175.5" font-family="Helvetica,sans-Serif" font-size="10.00">/src/Backends/ApMonBackend.h</text>
</a>
</g>
</g>
<!-- Node1&#45;&gt;Node17 -->
<g id="edge16" class="edge"><title>Node1&#45;&gt;Node17</title>
<path fill="none" stroke="midnightblue" d="M1926.04,-244.494C1968.99,-233.503 2020.87,-220.229 2062.67,-209.533"/>
<polygon fill="midnightblue" stroke="midnightblue" points="1925,-241.148 1916.18,-247.018 1926.74,-247.93 1925,-241.148"/>
</g>
<!-- Node20 -->
<g id="node20" class="node"><title>Node20</title>
<g id="a_node20"><a xlink:href="../../d4/d57/Flume_8h.html" target="_top" xlink:title="/home/travis/build\l/AliceO2Group/Monitoring\l/src/Backends/Flume.h">
<polygon fill="none" stroke="black" points="1686,-168.5 1686,-209.5 1814,-209.5 1814,-168.5 1686,-168.5"/>
<text text-anchor="start" x="1694" y="-197.5" font-family="Helvetica,sans-Serif" font-size="10.00">/home/travis/build</text>
<text text-anchor="start" x="1694" y="-186.5" font-family="Helvetica,sans-Serif" font-size="10.00">/AliceO2Group/Monitoring</text>
<text text-anchor="middle" x="1750" y="-175.5" font-family="Helvetica,sans-Serif" font-size="10.00">/src/Backends/Flume.h</text>
</a>
</g>
</g>
<!-- Node1&#45;&gt;Node20 -->
<g id="edge19" class="edge"><title>Node1&#45;&gt;Node20</title>
<path fill="none" stroke="midnightblue" d="M1810.26,-239.779C1798.23,-229.843 1784.76,-218.716 1773.61,-209.506"/>
<polygon fill="midnightblue" stroke="midnightblue" points="1808.37,-242.758 1818.31,-246.428 1812.83,-237.361 1808.37,-242.758"/>
</g>
<!-- Node23 -->
<g id="node23" class="node"><title>Node23</title>
<g id="a_node23"><a xlink:href="../../d1/d78/InfluxDB_8h.html" target="_top" xlink:title="/home/travis/build\l/AliceO2Group/Monitoring\l/src/Backends/InfluxDB.h">
<polygon fill="none" stroke="black" points="2393.5,-168.5 2393.5,-209.5 2522.5,-209.5 2522.5,-168.5 2393.5,-168.5"/>
<text text-anchor="start" x="2401.5" y="-197.5" font-family="Helvetica,sans-Serif" font-size="10.00">/home/travis/build</text>
<text text-anchor="start" x="2401.5" y="-186.5" font-family="Helvetica,sans-Serif" font-size="10.00">/AliceO2Group/Monitoring</text>
<text text-anchor="middle" x="2458" y="-175.5" font-family="Helvetica,sans-Serif" font-size="10.00">/src/Backends/InfluxDB.h</text>
</a>
</g>
</g>
<!-- Node1&#45;&gt;Node23 -->
<g id="edge24" class="edge"><title>Node1&#45;&gt;Node23</title>
<path fill="none" stroke="midnightblue" d="M1926.55,-255.568C2051.09,-240.203 2281.17,-211.816 2393.25,-197.988"/>
<polygon fill="midnightblue" stroke="midnightblue" points="1925.8,-252.134 1916.3,-256.833 1926.66,-259.082 1925.8,-252.134"/>
</g>
<!-- Node26 -->
<g id="node26" class="node"><title>Node26</title>
<g id="a_node26"><a xlink:href="../../d9/de4/InfoLoggerBackend_8h.html" target="_top" xlink:title="/home/travis/build\l/AliceO2Group/Monitoring\l/src/Backends/InfoLoggerBackend.h">
<polygon fill="none" stroke="black" points="1327.5,-168.5 1327.5,-209.5 1502.5,-209.5 1502.5,-168.5 1327.5,-168.5"/>
<text text-anchor="start" x="1335.5" y="-197.5" font-family="Helvetica,sans-Serif" font-size="10.00">/home/travis/build</text>
<text text-anchor="start" x="1335.5" y="-186.5" font-family="Helvetica,sans-Serif" font-size="10.00">/AliceO2Group/Monitoring</text>
<text text-anchor="middle" x="1415" y="-175.5" font-family="Helvetica,sans-Serif" font-size="10.00">/src/Backends/InfoLoggerBackend.h</text>
</a>
</g>
</g>
<!-- Node1&#45;&gt;Node26 -->
<g id="edge27" class="edge"><title>Node1&#45;&gt;Node26</title>
<path fill="none" stroke="midnightblue" d="M1757.44,-250.95C1683.69,-237.824 1577.13,-218.857 1502.52,-205.577"/>
<polygon fill="midnightblue" stroke="midnightblue" points="1757.16,-254.455 1767.62,-252.762 1758.39,-247.564 1757.16,-254.455"/>
</g>
<!-- Node28 -->
<g id="node28" class="node"><title>Node28</title>
<g id="a_node28"><a xlink:href="../../dd/d5f/Noop_8h.html" target="_top" xlink:title="/home/travis/build\l/AliceO2Group/Monitoring\l/src/Backends/Noop.h">
<polygon fill="none" stroke="black" points="1870,-168.5 1870,-209.5 1998,-209.5 1998,-168.5 1870,-168.5"/>
<text text-anchor="start" x="1878" y="-197.5" font-family="Helvetica,sans-Serif" font-size="10.00">/home/travis/build</text>
<text text-anchor="start" x="1878" y="-186.5" font-family="Helvetica,sans-Serif" font-size="10.00">/AliceO2Group/Monitoring</text>
<text text-anchor="middle" x="1934" y="-175.5" font-family="Helvetica,sans-Serif" font-size="10.00">/src/Backends/Noop.h</text>
</a>
</g>
</g>
<!-- Node1&#45;&gt;Node28 -->
<g id="edge31" class="edge"><title>Node1&#45;&gt;Node28</title>
<path fill="none" stroke="midnightblue" d="M1873.74,-239.779C1885.77,-229.843 1899.24,-218.716 1910.39,-209.506"/>
<polygon fill="midnightblue" stroke="midnightblue" points="1871.17,-237.361 1865.69,-246.428 1875.63,-242.758 1871.17,-237.361"/>
</g>
<!-- Node3 -->
<g id="node3" class="node"><title>Node3</title>
<g id="a_node3"><a xlink:href="../../df/d4e/MonitoringFactory_8h.html" target="_top" xlink:title="/home/travis/build\l/AliceO2Group/Monitoring\l/include/Monitoring/Monitoring\lFactory.h">
<polygon fill="none" stroke="black" points="989,-79 989,-131 1135,-131 1135,-79 989,-79"/>
<text text-anchor="start" x="997" y="-119" font-family="Helvetica,sans-Serif" font-size="10.00">/home/travis/build</text>
<text text-anchor="start" x="997" y="-108" font-family="Helvetica,sans-Serif" font-size="10.00">/AliceO2Group/Monitoring</text>
<text text-anchor="start" x="997" y="-97" font-family="Helvetica,sans-Serif" font-size="10.00">/include/Monitoring/Monitoring</text>
<text text-anchor="middle" x="1062" y="-86" font-family="Helvetica,sans-Serif" font-size="10.00">Factory.h</text>
</a>
</g>
</g>
<!-- Node2&#45;&gt;Node3 -->
<g id="edge2" class="edge"><title>Node2&#45;&gt;Node3</title>
<path fill="none" stroke="midnightblue" d="M1170.92,-163.621C1151.51,-153.356 1128.95,-141.417 1109.4,-131.078"/>
<polygon fill="midnightblue" stroke="midnightblue" points="1169.4,-166.776 1179.87,-168.359 1172.67,-160.589 1169.4,-166.776"/>
</g>
<!-- Node16 -->
<g id="node16" class="node"><title>Node16</title>
<g id="a_node16"><a xlink:href="../../d5/db4/Monitoring_8cxx.html" target="_top" xlink:title="/home/travis/build\l/AliceO2Group/Monitoring\l/src/Monitoring.cxx">
<polygon fill="none" stroke="black" points="1153,-84.5 1153,-125.5 1281,-125.5 1281,-84.5 1153,-84.5"/>
<text text-anchor="start" x="1161" y="-113.5" font-family="Helvetica,sans-Serif" font-size="10.00">/home/travis/build</text>
<text text-anchor="start" x="1161" y="-102.5" font-family="Helvetica,sans-Serif" font-size="10.00">/AliceO2Group/Monitoring</text>
<text text-anchor="middle" x="1217" y="-91.5" font-family="Helvetica,sans-Serif" font-size="10.00">/src/Monitoring.cxx</text>
</a>
</g>
</g>
<!-- Node2&#45;&gt;Node16 -->
<g id="edge15" class="edge"><title>Node2&#45;&gt;Node16</title>
<path fill="none" stroke="midnightblue" d="M1217,-157.881C1217,-147.133 1217,-135.309 1217,-125.667"/>
<polygon fill="midnightblue" stroke="midnightblue" points="1213.5,-158.15 1217,-168.15 1220.5,-158.15 1213.5,-158.15"/>
</g>
<!-- Node4 -->
<g id="node4" class="node"><title>Node4</title>
<g id="a_node4"><a xlink:href="../../d0/d18/1-Basic_8cxx.html" target="_top" xlink:title="/home/travis/build\l/AliceO2Group/Monitoring\l/examples/1&#45;Basic.cxx">
<polygon fill="none" stroke="black" points="1475,-0.5 1475,-41.5 1603,-41.5 1603,-0.5 1475,-0.5"/>
<text text-anchor="start" x="1483" y="-29.5" font-family="Helvetica,sans-Serif" font-size="10.00">/home/travis/build</text>
<text text-anchor="start" x="1483" y="-18.5" font-family="Helvetica,sans-Serif" font-size="10.00">/AliceO2Group/Monitoring</text>
<text text-anchor="middle" x="1539" y="-7.5" font-family="Helvetica,sans-Serif" font-size="10.00">/examples/1&#45;Basic.cxx</text>
</a>
</g>
</g>
<!-- Node3&#45;&gt;Node4 -->
<g id="edge3" class="edge"><title>Node3&#45;&gt;Node4</title>
<path fill="none" stroke="midnightblue" d="M1145.05,-77.9597C1286.7,-49.0146 1327.75,-68.4989 1466,-42 1468.84,-41.4558 1471.73,-40.8574 1474.64,-40.2182"/>
<polygon fill="midnightblue" stroke="midnightblue" points="1144.2,-74.5621 1135.13,-80.0328 1145.63,-81.4142 1144.2,-74.5621"/>
</g>
<!-- Node5 -->
<g id="node5" class="node"><title>Node5</title>
<g id="a_node5"><a xlink:href="../../dd/d84/10-Buffering_8cxx.html" target="_top" xlink:title="/home/travis/build\l/AliceO2Group/Monitoring\l/examples/10&#45;Buffering.cxx">
<polygon fill="none" stroke="black" points="1621,-0.5 1621,-41.5 1757,-41.5 1757,-0.5 1621,-0.5"/>
<text text-anchor="start" x="1629" y="-29.5" font-family="Helvetica,sans-Serif" font-size="10.00">/home/travis/build</text>
<text text-anchor="start" x="1629" y="-18.5" font-family="Helvetica,sans-Serif" font-size="10.00">/AliceO2Group/Monitoring</text>
<text text-anchor="middle" x="1689" y="-7.5" font-family="Helvetica,sans-Serif" font-size="10.00">/examples/10&#45;Buffering.cxx</text>
</a>
</g>
</g>
<!-- Node3&#45;&gt;Node5 -->
<g id="edge4" class="edge"><title>Node3&#45;&gt;Node5</title>
<path fill="none" stroke="midnightblue" d="M1145,-78.0073C1350.62,-39.3847 1409.45,-75.8208 1612,-42 1614.86,-41.5223 1617.77,-40.9884 1620.7,-40.4107"/>
<polygon fill="midnightblue" stroke="midnightblue" points="1144.26,-74.5853 1135.1,-79.9038 1145.58,-81.4604 1144.26,-74.5853"/>
</g>
<!-- Node6 -->
<g id="node6" class="node"><title>Node6</title>
<g id="a_node6"><a xlink:href="../../d0/dfe/2-TaggedMetrics_8cxx.html" target="_top" xlink:title="/home/travis/build\l/AliceO2Group/Monitoring\l/examples/2&#45;TaggedMetrics.cxx">
<polygon fill="none" stroke="black" points="0,-0.5 0,-41.5 156,-41.5 156,-0.5 0,-0.5"/>
<text text-anchor="start" x="8" y="-29.5" font-family="Helvetica,sans-Serif" font-size="10.00">/home/travis/build</text>
<text text-anchor="start" x="8" y="-18.5" font-family="Helvetica,sans-Serif" font-size="10.00">/AliceO2Group/Monitoring</text>
<text text-anchor="middle" x="78" y="-7.5" font-family="Helvetica,sans-Serif" font-size="10.00">/examples/2&#45;TaggedMetrics.cxx</text>
</a>
</g>
</g>
<!-- Node3&#45;&gt;Node6 -->
<g id="edge5" class="edge"><title>Node3&#45;&gt;Node6</title>
<path fill="none" stroke="midnightblue" d="M978.73,-102.6C819.734,-98.9663 462.267,-86.1629 165,-42 162.087,-41.5673 159.128,-41.0886 156.144,-40.5732"/>
<polygon fill="midnightblue" stroke="midnightblue" points="978.838,-106.104 988.913,-102.827 978.993,-99.1053 978.838,-106.104"/>
</g>
<!-- Node7 -->
<g id="node7" class="node"><title>Node7</title>
<g id="a_node7"><a xlink:href="../../d7/d1d/3-UserDefinedTimestamp_8cxx.html" target="_top" xlink:title="/home/travis/build\l/AliceO2Group/Monitoring\l/examples/3&#45;UserDefinedTimestamp.cxx">
<polygon fill="none" stroke="black" points="174.5,-0.5 174.5,-41.5 369.5,-41.5 369.5,-0.5 174.5,-0.5"/>
<text text-anchor="start" x="182.5" y="-29.5" font-family="Helvetica,sans-Serif" font-size="10.00">/home/travis/build</text>
<text text-anchor="start" x="182.5" y="-18.5" font-family="Helvetica,sans-Serif" font-size="10.00">/AliceO2Group/Monitoring</text>
<text text-anchor="middle" x="272" y="-7.5" font-family="Helvetica,sans-Serif" font-size="10.00">/examples/3&#45;UserDefinedTimestamp.cxx</text>
</a>
</g>
</g>
<!-- Node3&#45;&gt;Node7 -->
<g id="edge6" class="edge"><title>Node3&#45;&gt;Node7</title>
<path fill="none" stroke="midnightblue" d="M978.644,-99.0362C849.534,-90.7644 593.592,-72.039 378,-42 375.218,-41.6123 372.398,-41.2014 369.554,-40.7714"/>
<polygon fill="midnightblue" stroke="midnightblue" points="978.649,-102.544 988.851,-99.6853 979.093,-95.5576 978.649,-102.544"/>
</g>
<!-- Node8 -->
<g id="node8" class="node"><title>Node8</title>
<g id="a_node8"><a xlink:href="../../d2/dbd/4-RateDerivedMetric_8cxx.html" target="_top" xlink:title="/home/travis/build\l/AliceO2Group/Monitoring\l/examples/4&#45;RateDerivedMetric.cxx">
<polygon fill="none" stroke="black" points="387.5,-0.5 387.5,-41.5 560.5,-41.5 560.5,-0.5 387.5,-0.5"/>
<text text-anchor="start" x="395.5" y="-29.5" font-family="Helvetica,sans-Serif" font-size="10.00">/home/travis/build</text>
<text text-anchor="start" x="395.5" y="-18.5" font-family="Helvetica,sans-Serif" font-size="10.00">/AliceO2Group/Monitoring</text>
<text text-anchor="middle" x="474" y="-7.5" font-family="Helvetica,sans-Serif" font-size="10.00">/examples/4&#45;RateDerivedMetric.cxx</text>
</a>
</g>
</g>
<!-- Node3&#45;&gt;Node8 -->
<g id="edge7" class="edge"><title>Node3&#45;&gt;Node8</title>
<path fill="none" stroke="midnightblue" d="M978.468,-95.6169C880.166,-85.2615 712.175,-66.032 569,-42 566.257,-41.5396 563.474,-41.0556 560.665,-40.5527"/>
<polygon fill="midnightblue" stroke="midnightblue" points="978.328,-99.1213 988.638,-96.6828 979.057,-92.1594 978.328,-99.1213"/>
</g>
<!-- Node9 -->
<g id="node9" class="node"><title>Node9</title>
<g id="a_node9"><a xlink:href="../../d5/d3e/5-Benchmark_8cxx.html" target="_top" xlink:title="/home/travis/build\l/AliceO2Group/Monitoring\l/examples/5&#45;Benchmark.cxx">
<polygon fill="none" stroke="black" points="578.5,-0.5 578.5,-41.5 719.5,-41.5 719.5,-0.5 578.5,-0.5"/>
<text text-anchor="start" x="586.5" y="-29.5" font-family="Helvetica,sans-Serif" font-size="10.00">/home/travis/build</text>
<text text-anchor="start" x="586.5" y="-18.5" font-family="Helvetica,sans-Serif" font-size="10.00">/AliceO2Group/Monitoring</text>
<text text-anchor="middle" x="649" y="-7.5" font-family="Helvetica,sans-Serif" font-size="10.00">/examples/5&#45;Benchmark.cxx</text>
</a>
</g>
</g>
<!-- Node3&#45;&gt;Node9 -->
<g id="edge8" class="edge"><title>Node3&#45;&gt;Node9</title>
<path fill="none" stroke="midnightblue" d="M978.564,-90.0485C910.817,-78.3516 812.935,-60.6141 728,-42 725.236,-41.3942 722.422,-40.7611 719.582,-40.1085"/>
<polygon fill="midnightblue" stroke="midnightblue" points="978.305,-93.5552 988.754,-91.8015 979.492,-86.6566 978.305,-93.5552"/>
</g>
<!-- Node10 -->
<g id="node10" class="node"><title>Node10</title>
<g id="a_node10"><a xlink:href="../../d5/d20/6-Increment_8cxx.html" target="_top" xlink:title="/home/travis/build\l/AliceO2Group/Monitoring\l/examples/6&#45;Increment.cxx">
<polygon fill="none" stroke="black" points="737.5,-0.5 737.5,-41.5 872.5,-41.5 872.5,-0.5 737.5,-0.5"/>
<text text-anchor="start" x="745.5" y="-29.5" font-family="Helvetica,sans-Serif" font-size="10.00">/home/travis/build</text>
<text text-anchor="start" x="745.5" y="-18.5" font-family="Helvetica,sans-Serif" font-size="10.00">/AliceO2Group/Monitoring</text>
<text text-anchor="middle" x="805" y="-7.5" font-family="Helvetica,sans-Serif" font-size="10.00">/examples/6&#45;Increment.cxx</text>
</a>
</g>
</g>
<!-- Node3&#45;&gt;Node10 -->
<g id="edge9" class="edge"><title>Node3&#45;&gt;Node10</title>
<path fill="none" stroke="midnightblue" d="M979.012,-77.5214C942.336,-65.8194 899.98,-52.305 866.24,-41.5395"/>
<polygon fill="midnightblue" stroke="midnightblue" points="978.107,-80.9065 988.698,-80.6118 980.235,-74.2377 978.107,-80.9065"/>
</g>
<!-- Node11 -->
<g id="node11" class="node"><title>Node11</title>
<g id="a_node11"><a xlink:href="../../db/d78/7-Latency_8cxx.html" target="_top" xlink:title="/home/travis/build\l/AliceO2Group/Monitoring\l/examples/7&#45;Latency.cxx">
<polygon fill="none" stroke="black" points="891,-0.5 891,-41.5 1019,-41.5 1019,-0.5 891,-0.5"/>
<text text-anchor="start" x="899" y="-29.5" font-family="Helvetica,sans-Serif" font-size="10.00">/home/travis/build</text>
<text text-anchor="start" x="899" y="-18.5" font-family="Helvetica,sans-Serif" font-size="10.00">/AliceO2Group/Monitoring</text>
<text text-anchor="middle" x="955" y="-7.5" font-family="Helvetica,sans-Serif" font-size="10.00">/examples/7&#45;Latency.cxx</text>
</a>
</g>
</g>
<!-- Node3&#45;&gt;Node11 -->
<g id="edge10" class="edge"><title>Node3&#45;&gt;Node11</title>
<path fill="none" stroke="midnightblue" d="M1021.05,-72.6188C1007.49,-62.2248 992.785,-50.9568 980.701,-41.6965"/>
<polygon fill="midnightblue" stroke="midnightblue" points="1019.25,-75.647 1029.32,-78.9517 1023.51,-70.0909 1019.25,-75.647"/>
</g>
<!-- Node12 -->
<g id="node12" class="node"><title>Node12</title>
<g id="a_node12"><a xlink:href="../../d4/df8/8-Multiple_8cxx.html" target="_top" xlink:title="/home/travis/build\l/AliceO2Group/Monitoring\l/examples/8&#45;Multiple.cxx">
<polygon fill="none" stroke="black" points="1037,-0.5 1037,-41.5 1165,-41.5 1165,-0.5 1037,-0.5"/>
<text text-anchor="start" x="1045" y="-29.5" font-family="Helvetica,sans-Serif" font-size="10.00">/home/travis/build</text>
<text text-anchor="start" x="1045" y="-18.5" font-family="Helvetica,sans-Serif" font-size="10.00">/AliceO2Group/Monitoring</text>
<text text-anchor="middle" x="1101" y="-7.5" font-family="Helvetica,sans-Serif" font-size="10.00">/examples/8&#45;Multiple.cxx</text>
</a>
</g>
</g>
<!-- Node3&#45;&gt;Node12 -->
<g id="edge11" class="edge"><title>Node3&#45;&gt;Node12</title>
<path fill="none" stroke="midnightblue" d="M1078.33,-69.6562C1082.87,-60.1167 1087.64,-50.0832 1091.63,-41.6965"/>
<polygon fill="midnightblue" stroke="midnightblue" points="1075.05,-68.4178 1073.91,-78.9517 1081.37,-71.4244 1075.05,-68.4178"/>
</g>
<!-- Node13 -->
<g id="node13" class="node"><title>Node13</title>
<g id="a_node13"><a xlink:href="../../d6/d9f/9-Timer_8cxx.html" target="_top" xlink:title="/home/travis/build\l/AliceO2Group/Monitoring\l/examples/9&#45;Timer.cxx">
<polygon fill="none" stroke="black" points="1183,-0.5 1183,-41.5 1311,-41.5 1311,-0.5 1183,-0.5"/>
<text text-anchor="start" x="1191" y="-29.5" font-family="Helvetica,sans-Serif" font-size="10.00">/home/travis/build</text>
<text text-anchor="start" x="1191" y="-18.5" font-family="Helvetica,sans-Serif" font-size="10.00">/AliceO2Group/Monitoring</text>
<text text-anchor="middle" x="1247" y="-7.5" font-family="Helvetica,sans-Serif" font-size="10.00">/examples/9&#45;Timer.cxx</text>
</a>
</g>
</g>
<!-- Node3&#45;&gt;Node13 -->
<g id="edge12" class="edge"><title>Node3&#45;&gt;Node13</title>
<path fill="none" stroke="midnightblue" d="M1127.89,-74.7943C1152.77,-63.7683 1180.45,-51.4985 1202.86,-41.5645"/>
<polygon fill="midnightblue" stroke="midnightblue" points="1126.24,-71.6997 1118.51,-78.9517 1129.07,-78.0992 1126.24,-71.6997"/>
</g>
<!-- Node14 -->
<g id="node14" class="node"><title>Node14</title>
<g id="a_node14"><a xlink:href="../../d6/d98/MonitoringFactory_8cxx.html" target="_top" xlink:title="/home/travis/build\l/AliceO2Group/Monitoring\l/src/MonitoringFactory.cxx">
<polygon fill="none" stroke="black" points="1775.5,-0.5 1775.5,-41.5 1908.5,-41.5 1908.5,-0.5 1775.5,-0.5"/>
<text text-anchor="start" x="1783.5" y="-29.5" font-family="Helvetica,sans-Serif" font-size="10.00">/home/travis/build</text>
<text text-anchor="start" x="1783.5" y="-18.5" font-family="Helvetica,sans-Serif" font-size="10.00">/AliceO2Group/Monitoring</text>
<text text-anchor="middle" x="1842" y="-7.5" font-family="Helvetica,sans-Serif" font-size="10.00">/src/MonitoringFactory.cxx</text>
</a>
</g>
</g>
<!-- Node3&#45;&gt;Node14 -->
<g id="edge13" class="edge"><title>Node3&#45;&gt;Node14</title>
<path fill="none" stroke="midnightblue" d="M1145.3,-77.9747C1418.2,-29.157 1495.86,-84.9211 1766,-42 1769.1,-41.5076 1772.25,-40.9422 1775.43,-40.321"/>
<polygon fill="midnightblue" stroke="midnightblue" points="1144.3,-74.5985 1135.09,-79.8328 1145.55,-81.4853 1144.3,-74.5985"/>
</g>
<!-- Node15 -->
<g id="node15" class="node"><title>Node15</title>
<g id="a_node15"><a xlink:href="../../d7/dd5/testMonitoring_8cxx.html" target="_top" xlink:title="/home/travis/build\l/AliceO2Group/Monitoring\l/test/testMonitoring.cxx">
<polygon fill="none" stroke="black" points="1329,-0.5 1329,-41.5 1457,-41.5 1457,-0.5 1329,-0.5"/>
<text text-anchor="start" x="1337" y="-29.5" font-family="Helvetica,sans-Serif" font-size="10.00">/home/travis/build</text>
<text text-anchor="start" x="1337" y="-18.5" font-family="Helvetica,sans-Serif" font-size="10.00">/AliceO2Group/Monitoring</text>
<text text-anchor="middle" x="1393" y="-7.5" font-family="Helvetica,sans-Serif" font-size="10.00">/test/testMonitoring.cxx</text>
</a>
</g>
</g>
<!-- Node3&#45;&gt;Node15 -->
<g id="edge14" class="edge"><title>Node3&#45;&gt;Node15</title>
<path fill="none" stroke="midnightblue" d="M1145,-77.8478C1223,-58.0812 1245.38,-59.8336 1320,-42 1322.94,-41.2975 1325.94,-40.5598 1328.97,-39.7988"/>
<polygon fill="midnightblue" stroke="midnightblue" points="1144.02,-74.4866 1135.21,-80.3678 1145.76,-81.2659 1144.02,-74.4866"/>
</g>
<!-- Node18 -->
<g id="node18" class="node"><title>Node18</title>
<g id="a_node18"><a xlink:href="../../dc/d7a/ApMonBackend_8cxx.html" target="_top" xlink:title="/home/travis/build\l/AliceO2Group/Monitoring\l/src/Backends/ApMonBackend.cxx">
<polygon fill="none" stroke="black" points="2054,-84.5 2054,-125.5 2224,-125.5 2224,-84.5 2054,-84.5"/>
<text text-anchor="start" x="2062" y="-113.5" font-family="Helvetica,sans-Serif" font-size="10.00">/home/travis/build</text>
<text text-anchor="start" x="2062" y="-102.5" font-family="Helvetica,sans-Serif" font-size="10.00">/AliceO2Group/Monitoring</text>
<text text-anchor="middle" x="2139" y="-91.5" font-family="Helvetica,sans-Serif" font-size="10.00">/src/Backends/ApMonBackend.cxx</text>
</a>
</g>
</g>
<!-- Node17&#45;&gt;Node18 -->
<g id="edge17" class="edge"><title>Node17&#45;&gt;Node18</title>
<path fill="none" stroke="midnightblue" d="M2139,-157.881C2139,-147.133 2139,-135.309 2139,-125.667"/>
<polygon fill="midnightblue" stroke="midnightblue" points="2135.5,-158.15 2139,-168.15 2142.5,-158.15 2135.5,-158.15"/>
</g>
<!-- Node19 -->
<g id="node19" class="node"><title>Node19</title>
<g id="a_node19"><a xlink:href="../../d2/d31/testApMon_8cxx.html" target="_top" xlink:title="/home/travis/build\l/AliceO2Group/Monitoring\l/test/testApMon.cxx">
<polygon fill="none" stroke="black" points="2242,-84.5 2242,-125.5 2370,-125.5 2370,-84.5 2242,-84.5"/>
<text text-anchor="start" x="2250" y="-113.5" font-family="Helvetica,sans-Serif" font-size="10.00">/home/travis/build</text>
<text text-anchor="start" x="2250" y="-102.5" font-family="Helvetica,sans-Serif" font-size="10.00">/AliceO2Group/Monitoring</text>
<text text-anchor="middle" x="2306" y="-91.5" font-family="Helvetica,sans-Serif" font-size="10.00">/test/testApMon.cxx</text>
</a>
</g>
</g>
<!-- Node17&#45;&gt;Node19 -->
<g id="edge18" class="edge"><title>Node17&#45;&gt;Node19</title>
<path fill="none" stroke="midnightblue" d="M2188.24,-163.823C2213.02,-151.652 2242.68,-137.089 2266.04,-125.623"/>
<polygon fill="midnightblue" stroke="midnightblue" points="2186.43,-160.81 2179,-168.359 2189.52,-167.093 2186.43,-160.81"/>
</g>
<!-- Node20&#45;&gt;Node14 -->
<g id="edge22" class="edge"><title>Node20&#45;&gt;Node14</title>
<path fill="none" stroke="midnightblue" d="M1794.39,-162.284C1805.31,-153.948 1815.89,-143.764 1823,-132 1839.94,-103.971 1842.8,-65.0105 1842.78,-41.7665"/>
<polygon fill="midnightblue" stroke="midnightblue" points="1792.11,-159.614 1786.04,-168.294 1796.2,-165.297 1792.11,-159.614"/>
</g>
<!-- Node20&#45;&gt;Node16 -->
<g id="edge21" class="edge"><title>Node20&#45;&gt;Node16</title>
<path fill="none" stroke="midnightblue" d="M1675.87,-180.468C1591.13,-171.332 1448.47,-154.337 1327,-132 1312.04,-129.249 1296.06,-125.781 1281.04,-122.282"/>
<polygon fill="midnightblue" stroke="midnightblue" points="1675.59,-183.959 1685.91,-181.543 1676.34,-176.999 1675.59,-183.959"/>
</g>
<!-- Node21 -->
<g id="node21" class="node"><title>Node21</title>
<g id="a_node21"><a xlink:href="../../d7/d21/Flume_8cxx.html" target="_top" xlink:title="/home/travis/build\l/AliceO2Group/Monitoring\l/src/Backends/Flume.cxx">
<polygon fill="none" stroke="black" points="1540,-84.5 1540,-125.5 1668,-125.5 1668,-84.5 1540,-84.5"/>
<text text-anchor="start" x="1548" y="-113.5" font-family="Helvetica,sans-Serif" font-size="10.00">/home/travis/build</text>
<text text-anchor="start" x="1548" y="-102.5" font-family="Helvetica,sans-Serif" font-size="10.00">/AliceO2Group/Monitoring</text>
<text text-anchor="middle" x="1604" y="-91.5" font-family="Helvetica,sans-Serif" font-size="10.00">/src/Backends/Flume.cxx</text>
</a>
</g>
</g>
<!-- Node20&#45;&gt;Node21 -->
<g id="edge20" class="edge"><title>Node20&#45;&gt;Node21</title>
<path fill="none" stroke="midnightblue" d="M1706.09,-163.339C1684.6,-151.268 1659.08,-136.938 1638.94,-125.623"/>
<polygon fill="midnightblue" stroke="midnightblue" points="1704.6,-166.514 1715.03,-168.359 1708.02,-160.41 1704.6,-166.514"/>
</g>
<!-- Node22 -->
<g id="node22" class="node"><title>Node22</title>
<g id="a_node22"><a xlink:href="../../dd/d7a/testFlume_8cxx.html" target="_top" xlink:title="/home/travis/build\l/AliceO2Group/Monitoring\l/test/testFlume.cxx">
<polygon fill="none" stroke="black" points="1686,-84.5 1686,-125.5 1814,-125.5 1814,-84.5 1686,-84.5"/>
<text text-anchor="start" x="1694" y="-113.5" font-family="Helvetica,sans-Serif" font-size="10.00">/home/travis/build</text>
<text text-anchor="start" x="1694" y="-102.5" font-family="Helvetica,sans-Serif" font-size="10.00">/AliceO2Group/Monitoring</text>
<text text-anchor="middle" x="1750" y="-91.5" font-family="Helvetica,sans-Serif" font-size="10.00">/test/testFlume.cxx</text>
</a>
</g>
</g>
<!-- Node20&#45;&gt;Node22 -->
<g id="edge23" class="edge"><title>Node20&#45;&gt;Node22</title>
<path fill="none" stroke="midnightblue" d="M1750,-157.881C1750,-147.133 1750,-135.309 1750,-125.667"/>
<polygon fill="midnightblue" stroke="midnightblue" points="1746.5,-158.15 1750,-168.15 1753.5,-158.15 1746.5,-158.15"/>
</g>
<!-- Node24 -->
<g id="node24" class="node"><title>Node24</title>
<g id="a_node24"><a xlink:href="../../d8/dd1/InfluxDB_8cxx.html" target="_top" xlink:title="/home/travis/build\l/AliceO2Group/Monitoring\l/src/Backends/InfluxDB.cxx">
<polygon fill="none" stroke="black" points="2388,-84.5 2388,-125.5 2528,-125.5 2528,-84.5 2388,-84.5"/>
<text text-anchor="start" x="2396" y="-113.5" font-family="Helvetica,sans-Serif" font-size="10.00">/home/travis/build</text>
<text text-anchor="start" x="2396" y="-102.5" font-family="Helvetica,sans-Serif" font-size="10.00">/AliceO2Group/Monitoring</text>
<text text-anchor="middle" x="2458" y="-91.5" font-family="Helvetica,sans-Serif" font-size="10.00">/src/Backends/InfluxDB.cxx</text>
</a>
</g>
</g>
<!-- Node23&#45;&gt;Node24 -->
<g id="edge25" class="edge"><title>Node23&#45;&gt;Node24</title>
<path fill="none" stroke="midnightblue" d="M2458,-157.881C2458,-147.133 2458,-135.309 2458,-125.667"/>
<polygon fill="midnightblue" stroke="midnightblue" points="2454.5,-158.15 2458,-168.15 2461.5,-158.15 2454.5,-158.15"/>
</g>
<!-- Node25 -->
<g id="node25" class="node"><title>Node25</title>
<g id="a_node25"><a xlink:href="../../de/df5/testInfluxDb_8cxx.html" target="_top" xlink:title="/home/travis/build\l/AliceO2Group/Monitoring\l/test/testInfluxDb.cxx">
<polygon fill="none" stroke="black" points="2546,-84.5 2546,-125.5 2674,-125.5 2674,-84.5 2546,-84.5"/>
<text text-anchor="start" x="2554" y="-113.5" font-family="Helvetica,sans-Serif" font-size="10.00">/home/travis/build</text>
<text text-anchor="start" x="2554" y="-102.5" font-family="Helvetica,sans-Serif" font-size="10.00">/AliceO2Group/Monitoring</text>
<text text-anchor="middle" x="2610" y="-91.5" font-family="Helvetica,sans-Serif" font-size="10.00">/test/testInfluxDb.cxx</text>
</a>
</g>
</g>
<!-- Node23&#45;&gt;Node25 -->
<g id="edge26" class="edge"><title>Node23&#45;&gt;Node25</title>
<path fill="none" stroke="midnightblue" d="M2503.41,-163.501C2525.85,-151.396 2552.56,-136.988 2573.63,-125.623"/>
<polygon fill="midnightblue" stroke="midnightblue" points="2501.55,-160.531 2494.41,-168.359 2504.87,-166.691 2501.55,-160.531"/>
</g>
<!-- Node26&#45;&gt;Node14 -->
<g id="edge30" class="edge"><title>Node26&#45;&gt;Node14</title>
<path fill="none" stroke="midnightblue" d="M1357.49,-163.128C1345.3,-155.042 1334.01,-144.769 1327,-132 1315.45,-110.961 1310.74,-95.6504 1327,-78 1360.16,-42.0067 1717.76,-50.2594 1766,-42 1769.09,-41.4704 1772.24,-40.8746 1775.42,-40.2286"/>
<polygon fill="midnightblue" stroke="midnightblue" points="1355.69,-166.124 1366.04,-168.38 1359.35,-160.161 1355.69,-166.124"/>
</g>
<!-- Node26&#45;&gt;Node16 -->
<g id="edge29" class="edge"><title>Node26&#45;&gt;Node16</title>
<path fill="none" stroke="midnightblue" d="M1358.39,-164.554C1328.57,-152.206 1292.43,-137.24 1264.16,-125.529"/>
<polygon fill="midnightblue" stroke="midnightblue" points="1357.25,-167.87 1367.83,-168.463 1359.93,-161.403 1357.25,-167.87"/>
</g>
<!-- Node27 -->
<g id="node27" class="node"><title>Node27</title>
<g id="a_node27"><a xlink:href="../../dc/d95/InfoLoggerBackend_8cxx.html" target="_top" xlink:title="/home/travis/build\l/AliceO2Group/Monitoring\l/src/Backends/InfoLoggerBackend.cxx">
<polygon fill="none" stroke="black" points="1336.5,-84.5 1336.5,-125.5 1521.5,-125.5 1521.5,-84.5 1336.5,-84.5"/>
<text text-anchor="start" x="1344.5" y="-113.5" font-family="Helvetica,sans-Serif" font-size="10.00">/home/travis/build</text>
<text text-anchor="start" x="1344.5" y="-102.5" font-family="Helvetica,sans-Serif" font-size="10.00">/AliceO2Group/Monitoring</text>
<text text-anchor="middle" x="1429" y="-91.5" font-family="Helvetica,sans-Serif" font-size="10.00">/src/Backends/InfoLoggerBackend.cxx</text>
</a>
</g>
</g>
<!-- Node26&#45;&gt;Node27 -->
<g id="edge28" class="edge"><title>Node26&#45;&gt;Node27</title>
<path fill="none" stroke="midnightblue" d="M1420.08,-158.217C1421.94,-147.379 1423.98,-135.409 1425.64,-125.667"/>
<polygon fill="midnightblue" stroke="midnightblue" points="1416.62,-157.704 1418.39,-168.15 1423.52,-158.882 1416.62,-157.704"/>
</g>
<!-- Node28&#45;&gt;Node14 -->
<g id="edge32" class="edge"><title>Node28&#45;&gt;Node14</title>
<path fill="none" stroke="midnightblue" d="M1980.36,-162.565C1991.05,-154.313 2001.03,-144.101 2007,-132 2017.62,-110.476 2020.98,-97.5079 2007,-78 1984.71,-46.8953 1944.16,-32.857 1908.84,-26.6137"/>
<polygon fill="midnightblue" stroke="midnightblue" points="1978.19,-159.818 1972.1,-168.492 1982.27,-165.506 1978.19,-159.818"/>
</g>
<!-- Node29 -->
<g id="node29" class="node"><title>Node29</title>
<g id="a_node29"><a xlink:href="../../dd/da7/testNoop_8cxx.html" target="_top" xlink:title="/home/travis/build\l/AliceO2Group/Monitoring\l/test/testNoop.cxx">
<polygon fill="none" stroke="black" points="1870,-84.5 1870,-125.5 1998,-125.5 1998,-84.5 1870,-84.5"/>
<text text-anchor="start" x="1878" y="-113.5" font-family="Helvetica,sans-Serif" font-size="10.00">/home/travis/build</text>
<text text-anchor="start" x="1878" y="-102.5" font-family="Helvetica,sans-Serif" font-size="10.00">/AliceO2Group/Monitoring</text>
<text text-anchor="middle" x="1934" y="-91.5" font-family="Helvetica,sans-Serif" font-size="10.00">/test/testNoop.cxx</text>
</a>
</g>
</g>
<!-- Node28&#45;&gt;Node29 -->
<g id="edge33" class="edge"><title>Node28&#45;&gt;Node29</title>
<path fill="none" stroke="midnightblue" d="M1934,-157.881C1934,-147.133 1934,-135.309 1934,-125.667"/>
<polygon fill="midnightblue" stroke="midnightblue" points="1930.5,-158.15 1934,-168.15 1937.5,-158.15 1930.5,-158.15"/>
</g>
</g>
</svg>
