<?xml version="1.0" encoding="UTF-8" standalone="no"?>
<!DOCTYPE svg PUBLIC "-//W3C//DTD SVG 1.1//EN"
 "http://www.w3.org/Graphics/SVG/1.1/DTD/svg11.dtd">
<!-- Generated by graphviz version 2.36.0 (20140111.2315)
 -->
<!-- Title: Graphical Class Hierarchy Pages: 1 -->
<svg width="292pt" height="234pt"
 viewBox="0.00 0.00 292.00 234.00" xmlns="http://www.w3.org/2000/svg" xmlns:xlink="http://www.w3.org/1999/xlink">
<g id="graph0" class="graph" transform="scale(1 1) rotate(0) translate(4 230)">
<title>Graphical Class Hierarchy</title>
<!-- Node1 -->
<g id="node1" class="node"><title>Node1</title>
<g id="a_node1"><a xlink:href="d6/dec/classo2_1_1monitoring_1_1Backend.html" target="_top" xlink:title="Backend pure virtual interface. ">
<polygon fill="none" stroke="black" points="0,-103.5 0,-122.5 122,-122.5 122,-103.5 0,-103.5"/>
<text text-anchor="middle" x="61" y="-110.5" font-family="Helvetica,sans-Serif" font-size="10.00">o2::monitoring::Backend</text>
</a>
</g>
</g>
<!-- Node2 -->
<g id="node2" class="node"><title>Node2</title>
<g id="a_node2"><a xlink:href="d0/d1b/classo2_1_1monitoring_1_1backends_1_1ApMonBackend.html" target="_top" xlink:title="Backend that uses AppMon (MonALISA) ">
<polygon fill="none" stroke="black" points="158,-196 158,-226 284,-226 284,-196 158,-196"/>
<text text-anchor="start" x="166" y="-214" font-family="Helvetica,sans-Serif" font-size="10.00">o2::monitoring::backends</text>
<text text-anchor="middle" x="221" y="-203" font-family="Helvetica,sans-Serif" font-size="10.00">::ApMonBackend</text>
</a>
</g>
</g>
<!-- Node1&#45;&gt;Node2 -->
<g id="edge1" class="edge"><title>Node1&#45;&gt;Node2</title>
<path fill="none" stroke="midnightblue" d="M80.2395,-129.247C98.8198,-145.205 128.952,-169.495 158,-186 164.357,-189.612 171.34,-192.961 178.256,-195.956"/>
<polygon fill="midnightblue" stroke="midnightblue" points="82.4005,-126.487 72.5609,-122.559 77.8029,-131.766 82.4005,-126.487"/>
</g>
<!-- Node3 -->
<g id="node3" class="node"><title>Node3</title>
<g id="a_node3"><a xlink:href="d9/df5/classo2_1_1monitoring_1_1backends_1_1Flume.html" target="_top" xlink:title="Backend that sends metrics to custum Apache Flume source. ">
<polygon fill="none" stroke="black" points="158,-147 158,-177 284,-177 284,-147 158,-147"/>
<text text-anchor="start" x="166" y="-165" font-family="Helvetica,sans-Serif" font-size="10.00">o2::monitoring::backends</text>
<text text-anchor="middle" x="221" y="-154" font-family="Helvetica,sans-Serif" font-size="10.00">::Flume</text>
</a>
</g>
</g>
<!-- Node1&#45;&gt;Node3 -->
<g id="edge2" class="edge"><title>Node1&#45;&gt;Node3</title>
<path fill="none" stroke="midnightblue" d="M102.444,-125.543C123.497,-132.072 149.391,-140.102 171.513,-146.963"/>
<polygon fill="midnightblue" stroke="midnightblue" points="103.427,-122.183 92.8391,-122.564 101.354,-128.869 103.427,-122.183"/>
</g>
<!-- Node4 -->
<g id="node4" class="node"><title>Node4</title>
<g id="a_node4"><a xlink:href="dd/d09/classo2_1_1monitoring_1_1backends_1_1InfluxDB.html" target="_top" xlink:title="Backend that sends metrics to InfluxDB time&#45;series databse. ">
<polygon fill="none" stroke="black" points="158,-98 158,-128 284,-128 284,-98 158,-98"/>
<text text-anchor="start" x="166" y="-116" font-family="Helvetica,sans-Serif" font-size="10.00">o2::monitoring::backends</text>
<text text-anchor="middle" x="221" y="-105" font-family="Helvetica,sans-Serif" font-size="10.00">::InfluxDB</text>
</a>
</g>
</g>
<!-- Node1&#45;&gt;Node4 -->
<g id="edge3" class="edge"><title>Node1&#45;&gt;Node4</title>
<path fill="none" stroke="midnightblue" d="M132.437,-113C140.919,-113 149.534,-113 157.886,-113"/>
<polygon fill="midnightblue" stroke="midnightblue" points="132.184,-109.5 122.184,-113 132.184,-116.5 132.184,-109.5"/>
</g>
<!-- Node5 -->
<g id="node5" class="node"><title>Node5</title>
<g id="a_node5"><a xlink:href="d7/db9/classo2_1_1monitoring_1_1backends_1_1InfoLoggerBackend.html" target="_top" xlink:title="Backend that injects metrics to InfoLogger. ">
<polygon fill="none" stroke="black" points="158,-49 158,-79 284,-79 284,-49 158,-49"/>
<text text-anchor="start" x="166" y="-67" font-family="Helvetica,sans-Serif" font-size="10.00">o2::monitoring::backends</text>
<text text-anchor="middle" x="221" y="-56" font-family="Helvetica,sans-Serif" font-size="10.00">::InfoLoggerBackend</text>
</a>
</g>
</g>
<!-- Node1&#45;&gt;Node5 -->
<g id="edge4" class="edge"><title>Node1&#45;&gt;Node5</title>
<path fill="none" stroke="midnightblue" d="M102.444,-100.457C123.497,-93.9281 149.391,-85.8976 171.513,-79.037"/>
<polygon fill="midnightblue" stroke="midnightblue" points="101.354,-97.1309 92.8391,-103.436 103.427,-103.817 101.354,-97.1309"/>
</g>
<!-- Node6 -->
<g id="node6" class="node"><title>Node6</title>
<g id="a_node6"><a xlink:href="d7/dae/classo2_1_1monitoring_1_1backends_1_1Noop.html" target="_top" xlink:title="No&#45;op backend. ">
<polygon fill="none" stroke="black" points="158,-0 158,-30 284,-30 284,-0 158,-0"/>
<text text-anchor="start" x="166" y="-18" font-family="Helvetica,sans-Serif" font-size="10.00">o2::monitoring::backends</text>
<text text-anchor="middle" x="221" y="-7" font-family="Helvetica,sans-Serif" font-size="10.00">::Noop</text>
</a>
</g>
</g>
<!-- Node1&#45;&gt;Node6 -->
<g id="edge5" class="edge"><title>Node1&#45;&gt;Node6</title>
<path fill="none" stroke="midnightblue" d="M80.2395,-96.7533C98.8198,-80.7949 128.952,-56.5048 158,-40 164.357,-36.3878 171.34,-33.0395 178.256,-30.0438"/>
<polygon fill="midnightblue" stroke="midnightblue" points="77.8029,-94.2342 72.5609,-103.441 82.4005,-99.5127 77.8029,-94.2342"/>
</g>
</g>
</svg>
