<?xml version="1.0" encoding="UTF-8" standalone="no"?>
<!DOCTYPE svg PUBLIC "-//W3C//DTD SVG 1.1//EN"
 "http://www.w3.org/Graphics/SVG/1.1/DTD/svg11.dtd">
<!-- Generated by graphviz version 2.36.0 (20140111.2315)
 -->
<!-- Title: /home/travis/build/AliceO2Group/Monitoring/include/Monitoring/Metric.h Pages: 1 -->
<svg width="2682pt" height="374pt"
 viewBox="0.00 0.00 2682.00 374.00" xmlns="http://www.w3.org/2000/svg" xmlns:xlink="http://www.w3.org/1999/xlink">
<g id="graph0" class="graph" transform="scale(1 1) rotate(0) translate(4 370)">
<title>/home/travis/build/AliceO2Group/Monitoring/include/Monitoring/Metric.h</title>
<!-- Node1 -->
<g id="node1" class="node"><title>Node1</title>
<polygon fill="#bfbfbf" stroke="black" points="1447.5,-324.5 1447.5,-365.5 1584.5,-365.5 1584.5,-324.5 1447.5,-324.5"/>
<text text-anchor="start" x="1455.5" y="-353.5" font-family="Helvetica,sans-Serif" font-size="10.00">/home/travis/build</text>
<text text-anchor="start" x="1455.5" y="-342.5" font-family="Helvetica,sans-Serif" font-size="10.00">/AliceO2Group/Monitoring</text>
<text text-anchor="middle" x="1516" y="-331.5" font-family="Helvetica,sans-Serif" font-size="10.00">/include/Monitoring/Metric.h</text>
</g>
<!-- Node2 -->
<g id="node2" class="node"><title>Node2</title>
<g id="a_node2"><a xlink:href="../../df/d83/Backend_8h.html" target="_top" xlink:title="/home/travis/build\l/AliceO2Group/Monitoring\l/include/Monitoring/Backend.h">
<polygon fill="none" stroke="black" points="1442,-246.5 1442,-287.5 1590,-287.5 1590,-246.5 1442,-246.5"/>
<text text-anchor="start" x="1450" y="-275.5" font-family="Helvetica,sans-Serif" font-size="10.00">/home/travis/build</text>
<text text-anchor="start" x="1450" y="-264.5" font-family="Helvetica,sans-Serif" font-size="10.00">/AliceO2Group/Monitoring</text>
<text text-anchor="middle" x="1516" y="-253.5" font-family="Helvetica,sans-Serif" font-size="10.00">/include/Monitoring/Backend.h</text>
</a>
</g>
</g>
<!-- Node1&#45;&gt;Node2 -->
<g id="edge1" class="edge"><title>Node1&#45;&gt;Node2</title>
<path fill="none" stroke="midnightblue" d="M1516,-314.297C1516,-305.301 1516,-295.653 1516,-287.506"/>
<polygon fill="midnightblue" stroke="midnightblue" points="1512.5,-314.428 1516,-324.428 1519.5,-314.428 1512.5,-314.428"/>
</g>
<!-- Node31 -->
<g id="node31" class="node"><title>Node31</title>
<g id="a_node31"><a xlink:href="../../dc/de0/DerivedMetrics_8h.html" target="_top" xlink:title="/home/travis/build\l/AliceO2Group/Monitoring\l/include/Monitoring/DerivedMetrics.h">
<polygon fill="none" stroke="black" points="759,-246.5 759,-287.5 935,-287.5 935,-246.5 759,-246.5"/>
<text text-anchor="start" x="767" y="-275.5" font-family="Helvetica,sans-Serif" font-size="10.00">/home/travis/build</text>
<text text-anchor="start" x="767" y="-264.5" font-family="Helvetica,sans-Serif" font-size="10.00">/AliceO2Group/Monitoring</text>
<text text-anchor="middle" x="847" y="-253.5" font-family="Helvetica,sans-Serif" font-size="10.00">/include/Monitoring/DerivedMetrics.h</text>
</a>
</g>
</g>
<!-- Node1&#45;&gt;Node31 -->
<g id="edge35" class="edge"><title>Node1&#45;&gt;Node31</title>
<path fill="none" stroke="midnightblue" d="M1437.3,-335.059C1311.68,-320.789 1066.66,-292.954 935.265,-278.027"/>
<polygon fill="midnightblue" stroke="midnightblue" points="1436.91,-338.537 1447.24,-336.188 1437.7,-331.582 1436.91,-338.537"/>
</g>
<!-- Node34 -->
<g id="node34" class="node"><title>Node34</title>
<g id="a_node34"><a xlink:href="../../df/d93/ProcessMonitor_8h.html" target="_top" xlink:title="/home/travis/build\l/AliceO2Group/Monitoring\l/include/Monitoring/ProcessMonitor.h">
<polygon fill="none" stroke="black" points="1089,-246.5 1089,-287.5 1267,-287.5 1267,-246.5 1089,-246.5"/>
<text text-anchor="start" x="1097" y="-275.5" font-family="Helvetica,sans-Serif" font-size="10.00">/home/travis/build</text>
<text text-anchor="start" x="1097" y="-264.5" font-family="Helvetica,sans-Serif" font-size="10.00">/AliceO2Group/Monitoring</text>
<text text-anchor="middle" x="1178" y="-253.5" font-family="Helvetica,sans-Serif" font-size="10.00">/include/Monitoring/ProcessMonitor.h</text>
</a>
</g>
</g>
<!-- Node1&#45;&gt;Node34 -->
<g id="edge39" class="edge"><title>Node1&#45;&gt;Node34</title>
<path fill="none" stroke="midnightblue" d="M1437.41,-326.328C1385.71,-314.705 1318.03,-299.486 1264.76,-287.509"/>
<polygon fill="midnightblue" stroke="midnightblue" points="1436.67,-329.75 1447.19,-328.529 1438.2,-322.92 1436.67,-329.75"/>
</g>
<!-- Node37 -->
<g id="node37" class="node"><title>Node37</title>
<g id="a_node37"><a xlink:href="../../dd/d6f/Metric_8cxx.html" target="_top" xlink:title="/home/travis/build\l/AliceO2Group/Monitoring\l/src/Metric.cxx">
<polygon fill="none" stroke="black" points="1608,-246.5 1608,-287.5 1736,-287.5 1736,-246.5 1608,-246.5"/>
<text text-anchor="start" x="1616" y="-275.5" font-family="Helvetica,sans-Serif" font-size="10.00">/home/travis/build</text>
<text text-anchor="start" x="1616" y="-264.5" font-family="Helvetica,sans-Serif" font-size="10.00">/AliceO2Group/Monitoring</text>
<text text-anchor="middle" x="1672" y="-253.5" font-family="Helvetica,sans-Serif" font-size="10.00">/src/Metric.cxx</text>
</a>
</g>
</g>
<!-- Node1&#45;&gt;Node37 -->
<g id="edge43" class="edge"><title>Node1&#45;&gt;Node37</title>
<path fill="none" stroke="midnightblue" d="M1565.45,-319.908C1586.9,-309.458 1611.69,-297.38 1631.96,-287.506"/>
<polygon fill="midnightblue" stroke="midnightblue" points="1563.63,-316.902 1556.17,-324.428 1566.7,-323.195 1563.63,-316.902"/>
</g>
<!-- Node38 -->
<g id="node38" class="node"><title>Node38</title>
<g id="a_node38"><a xlink:href="../../d0/de5/testMetric_8cxx.html" target="_top" xlink:title="/home/travis/build\l/AliceO2Group/Monitoring\l/test/testMetric.cxx">
<polygon fill="none" stroke="black" points="1754,-246.5 1754,-287.5 1882,-287.5 1882,-246.5 1754,-246.5"/>
<text text-anchor="start" x="1762" y="-275.5" font-family="Helvetica,sans-Serif" font-size="10.00">/home/travis/build</text>
<text text-anchor="start" x="1762" y="-264.5" font-family="Helvetica,sans-Serif" font-size="10.00">/AliceO2Group/Monitoring</text>
<text text-anchor="middle" x="1818" y="-253.5" font-family="Helvetica,sans-Serif" font-size="10.00">/test/testMetric.cxx</text>
</a>
</g>
</g>
<!-- Node1&#45;&gt;Node38 -->
<g id="edge44" class="edge"><title>Node1&#45;&gt;Node38</title>
<path fill="none" stroke="midnightblue" d="M1594.35,-325.406C1638.64,-314.752 1695,-300.961 1745,-288 1747.93,-287.242 1750.91,-286.458 1753.93,-285.66"/>
<polygon fill="midnightblue" stroke="midnightblue" points="1593.42,-322.029 1584.51,-327.768 1595.05,-328.836 1593.42,-322.029"/>
</g>
<!-- Node3 -->
<g id="node3" class="node"><title>Node3</title>
<g id="a_node3"><a xlink:href="../../d0/d98/Monitoring_8h.html" target="_top" xlink:title="/home/travis/build\l/AliceO2Group/Monitoring\l/include/Monitoring/Monitoring.h">
<polygon fill="none" stroke="black" points="1168.5,-168.5 1168.5,-209.5 1323.5,-209.5 1323.5,-168.5 1168.5,-168.5"/>
<text text-anchor="start" x="1176.5" y="-197.5" font-family="Helvetica,sans-Serif" font-size="10.00">/home/travis/build</text>
<text text-anchor="start" x="1176.5" y="-186.5" font-family="Helvetica,sans-Serif" font-size="10.00">/AliceO2Group/Monitoring</text>
<text text-anchor="middle" x="1246" y="-175.5" font-family="Helvetica,sans-Serif" font-size="10.00">/include/Monitoring/Monitoring.h</text>
</a>
</g>
</g>
<!-- Node2&#45;&gt;Node3 -->
<g id="edge2" class="edge"><title>Node2&#45;&gt;Node3</title>
<path fill="none" stroke="midnightblue" d="M1436.84,-243.718C1398.31,-232.874 1352.42,-219.956 1315.3,-209.506"/>
<polygon fill="midnightblue" stroke="midnightblue" points="1435.89,-247.088 1446.47,-246.428 1437.79,-240.349 1435.89,-247.088"/>
</g>
<!-- Node18 -->
<g id="node18" class="node"><title>Node18</title>
<g id="a_node18"><a xlink:href="../../db/df5/ApMonBackend_8h.html" target="_top" xlink:title="/home/travis/build\l/AliceO2Group/Monitoring\l/src/Backends/ApMonBackend.h">
<polygon fill="none" stroke="black" points="2059,-168.5 2059,-209.5 2219,-209.5 2219,-168.5 2059,-168.5"/>
<text text-anchor="start" x="2067" y="-197.5" font-family="Helvetica,sans-Serif" font-size="10.00">/home/travis/build</text>
<text text-anchor="start" x="2067" y="-186.5" font-family="Helvetica,sans-Serif" font-size="10.00">/AliceO2Group/Monitoring</text>
<text text-anchor="middle" x="2139" y="-175.5" font-family="Helvetica,sans-Serif" font-size="10.00">/src/Backends/ApMonBackend.h</text>
</a>
</g>
</g>
<!-- Node2&#45;&gt;Node18 -->
<g id="edge17" class="edge"><title>Node2&#45;&gt;Node18</title>
<path fill="none" stroke="midnightblue" d="M1600.18,-245.934C1780.41,-217.129 1829.52,-231.255 2007,-210 2023.8,-207.988 2041.75,-205.497 2058.83,-202.964"/>
<polygon fill="midnightblue" stroke="midnightblue" points="1599.41,-242.513 1590.1,-247.568 1600.53,-249.423 1599.41,-242.513"/>
</g>
<!-- Node21 -->
<g id="node21" class="node"><title>Node21</title>
<g id="a_node21"><a xlink:href="../../d4/d57/Flume_8h.html" target="_top" xlink:title="/home/travis/build\l/AliceO2Group/Monitoring\l/src/Backends/Flume.h">
<polygon fill="none" stroke="black" points="1540,-168.5 1540,-209.5 1668,-209.5 1668,-168.5 1540,-168.5"/>
<text text-anchor="start" x="1548" y="-197.5" font-family="Helvetica,sans-Serif" font-size="10.00">/home/travis/build</text>
<text text-anchor="start" x="1548" y="-186.5" font-family="Helvetica,sans-Serif" font-size="10.00">/AliceO2Group/Monitoring</text>
<text text-anchor="middle" x="1604" y="-175.5" font-family="Helvetica,sans-Serif" font-size="10.00">/src/Backends/Flume.h</text>
</a>
</g>
</g>
<!-- Node2&#45;&gt;Node21 -->
<g id="edge20" class="edge"><title>Node2&#45;&gt;Node21</title>
<path fill="none" stroke="midnightblue" d="M1546.36,-239.779C1557.87,-229.843 1570.75,-218.716 1581.41,-209.506"/>
<polygon fill="midnightblue" stroke="midnightblue" points="1543.94,-237.243 1538.66,-246.428 1548.52,-242.541 1543.94,-237.243"/>
</g>
<!-- Node24 -->
<g id="node24" class="node"><title>Node24</title>
<g id="a_node24"><a xlink:href="../../d1/d78/InfluxDB_8h.html" target="_top" xlink:title="/home/travis/build\l/AliceO2Group/Monitoring\l/src/Backends/InfluxDB.h">
<polygon fill="none" stroke="black" points="2393.5,-168.5 2393.5,-209.5 2522.5,-209.5 2522.5,-168.5 2393.5,-168.5"/>
<text text-anchor="start" x="2401.5" y="-197.5" font-family="Helvetica,sans-Serif" font-size="10.00">/home/travis/build</text>
<text text-anchor="start" x="2401.5" y="-186.5" font-family="Helvetica,sans-Serif" font-size="10.00">/AliceO2Group/Monitoring</text>
<text text-anchor="middle" x="2458" y="-175.5" font-family="Helvetica,sans-Serif" font-size="10.00">/src/Backends/InfluxDB.h</text>
</a>
</g>
</g>
<!-- Node2&#45;&gt;Node24 -->
<g id="edge25" class="edge"><title>Node2&#45;&gt;Node24</title>
<path fill="none" stroke="midnightblue" d="M1600.05,-245.989C1877.73,-205.62 1951.98,-229.895 2228,-210 2283.77,-205.98 2347.05,-200.403 2393.1,-196.159"/>
<polygon fill="midnightblue" stroke="midnightblue" points="1599.47,-242.537 1590.08,-247.453 1600.49,-249.462 1599.47,-242.537"/>
</g>
<!-- Node27 -->
<g id="node27" class="node"><title>Node27</title>
<g id="a_node27"><a xlink:href="../../d9/de4/InfoLoggerBackend_8h.html" target="_top" xlink:title="/home/travis/build\l/AliceO2Group/Monitoring\l/src/Backends/InfoLoggerBackend.h">
<polygon fill="none" stroke="black" points="1341.5,-168.5 1341.5,-209.5 1516.5,-209.5 1516.5,-168.5 1341.5,-168.5"/>
<text text-anchor="start" x="1349.5" y="-197.5" font-family="Helvetica,sans-Serif" font-size="10.00">/home/travis/build</text>
<text text-anchor="start" x="1349.5" y="-186.5" font-family="Helvetica,sans-Serif" font-size="10.00">/AliceO2Group/Monitoring</text>
<text text-anchor="middle" x="1429" y="-175.5" font-family="Helvetica,sans-Serif" font-size="10.00">/src/Backends/InfoLoggerBackend.h</text>
</a>
</g>
</g>
<!-- Node2&#45;&gt;Node27 -->
<g id="edge28" class="edge"><title>Node2&#45;&gt;Node27</title>
<path fill="none" stroke="midnightblue" d="M1485.98,-239.779C1474.61,-229.843 1461.87,-218.716 1451.33,-209.506"/>
<polygon fill="midnightblue" stroke="midnightblue" points="1483.76,-242.485 1493.6,-246.428 1488.37,-237.213 1483.76,-242.485"/>
</g>
<!-- Node29 -->
<g id="node29" class="node"><title>Node29</title>
<g id="a_node29"><a xlink:href="../../dd/d5f/Noop_8h.html" target="_top" xlink:title="/home/travis/build\l/AliceO2Group/Monitoring\l/src/Backends/Noop.h">
<polygon fill="none" stroke="black" points="1870,-168.5 1870,-209.5 1998,-209.5 1998,-168.5 1870,-168.5"/>
<text text-anchor="start" x="1878" y="-197.5" font-family="Helvetica,sans-Serif" font-size="10.00">/home/travis/build</text>
<text text-anchor="start" x="1878" y="-186.5" font-family="Helvetica,sans-Serif" font-size="10.00">/AliceO2Group/Monitoring</text>
<text text-anchor="middle" x="1934" y="-175.5" font-family="Helvetica,sans-Serif" font-size="10.00">/src/Backends/Noop.h</text>
</a>
</g>
</g>
<!-- Node2&#45;&gt;Node29 -->
<g id="edge32" class="edge"><title>Node2&#45;&gt;Node29</title>
<path fill="none" stroke="midnightblue" d="M1600.09,-245.841C1699.76,-225.782 1804.41,-209.185 1869.84,-199.343"/>
<polygon fill="midnightblue" stroke="midnightblue" points="1599.26,-242.439 1590.15,-247.856 1600.65,-249.299 1599.26,-242.439"/>
</g>
<!-- Node4 -->
<g id="node4" class="node"><title>Node4</title>
<g id="a_node4"><a xlink:href="../../df/d4e/MonitoringFactory_8h.html" target="_top" xlink:title="/home/travis/build\l/AliceO2Group/Monitoring\l/include/Monitoring/Monitoring\lFactory.h">
<polygon fill="none" stroke="black" points="989,-79 989,-131 1135,-131 1135,-79 989,-79"/>
<text text-anchor="start" x="997" y="-119" font-family="Helvetica,sans-Serif" font-size="10.00">/home/travis/build</text>
<text text-anchor="start" x="997" y="-108" font-family="Helvetica,sans-Serif" font-size="10.00">/AliceO2Group/Monitoring</text>
<text text-anchor="start" x="997" y="-97" font-family="Helvetica,sans-Serif" font-size="10.00">/include/Monitoring/Monitoring</text>
<text text-anchor="middle" x="1062" y="-86" font-family="Helvetica,sans-Serif" font-size="10.00">Factory.h</text>
</a>
</g>
</g>
<!-- Node3&#45;&gt;Node4 -->
<g id="edge3" class="edge"><title>Node3&#45;&gt;Node4</title>
<path fill="none" stroke="midnightblue" d="M1192.54,-164.176C1169.23,-153.788 1141.89,-141.604 1118.27,-131.078"/>
<polygon fill="midnightblue" stroke="midnightblue" points="1191.37,-167.485 1201.93,-168.359 1194.22,-161.091 1191.37,-167.485"/>
</g>
<!-- Node17 -->
<g id="node17" class="node"><title>Node17</title>
<g id="a_node17"><a xlink:href="../../d5/db4/Monitoring_8cxx.html" target="_top" xlink:title="/home/travis/build\l/AliceO2Group/Monitoring\l/src/Monitoring.cxx">
<polygon fill="none" stroke="black" points="1153,-84.5 1153,-125.5 1281,-125.5 1281,-84.5 1153,-84.5"/>
<text text-anchor="start" x="1161" y="-113.5" font-family="Helvetica,sans-Serif" font-size="10.00">/home/travis/build</text>
<text text-anchor="start" x="1161" y="-102.5" font-family="Helvetica,sans-Serif" font-size="10.00">/AliceO2Group/Monitoring</text>
<text text-anchor="middle" x="1217" y="-91.5" font-family="Helvetica,sans-Serif" font-size="10.00">/src/Monitoring.cxx</text>
</a>
</g>
</g>
<!-- Node3&#45;&gt;Node17 -->
<g id="edge16" class="edge"><title>Node3&#45;&gt;Node17</title>
<path fill="none" stroke="midnightblue" d="M1235.59,-158.551C1231.72,-147.626 1227.44,-135.51 1223.96,-125.667"/>
<polygon fill="midnightblue" stroke="midnightblue" points="1232.35,-159.889 1238.98,-168.15 1238.95,-157.555 1232.35,-159.889"/>
</g>
<!-- Node5 -->
<g id="node5" class="node"><title>Node5</title>
<g id="a_node5"><a xlink:href="../../d0/d18/1-Basic_8cxx.html" target="_top" xlink:title="/home/travis/build\l/AliceO2Group/Monitoring\l/examples/1&#45;Basic.cxx">
<polygon fill="none" stroke="black" points="1475,-0.5 1475,-41.5 1603,-41.5 1603,-0.5 1475,-0.5"/>
<text text-anchor="start" x="1483" y="-29.5" font-family="Helvetica,sans-Serif" font-size="10.00">/home/travis/build</text>
<text text-anchor="start" x="1483" y="-18.5" font-family="Helvetica,sans-Serif" font-size="10.00">/AliceO2Group/Monitoring</text>
<text text-anchor="middle" x="1539" y="-7.5" font-family="Helvetica,sans-Serif" font-size="10.00">/examples/1&#45;Basic.cxx</text>
</a>
</g>
</g>
<!-- Node4&#45;&gt;Node5 -->
<g id="edge4" class="edge"><title>Node4&#45;&gt;Node5</title>
<path fill="none" stroke="midnightblue" d="M1145.05,-77.9597C1286.7,-49.0146 1327.75,-68.4989 1466,-42 1468.84,-41.4558 1471.73,-40.8574 1474.64,-40.2182"/>
<polygon fill="midnightblue" stroke="midnightblue" points="1144.2,-74.5621 1135.13,-80.0328 1145.63,-81.4142 1144.2,-74.5621"/>
</g>
<!-- Node6 -->
<g id="node6" class="node"><title>Node6</title>
<g id="a_node6"><a xlink:href="../../dd/d84/10-Buffering_8cxx.html" target="_top" xlink:title="/home/travis/build\l/AliceO2Group/Monitoring\l/examples/10&#45;Buffering.cxx">
<polygon fill="none" stroke="black" points="1621,-0.5 1621,-41.5 1757,-41.5 1757,-0.5 1621,-0.5"/>
<text text-anchor="start" x="1629" y="-29.5" font-family="Helvetica,sans-Serif" font-size="10.00">/home/travis/build</text>
<text text-anchor="start" x="1629" y="-18.5" font-family="Helvetica,sans-Serif" font-size="10.00">/AliceO2Group/Monitoring</text>
<text text-anchor="middle" x="1689" y="-7.5" font-family="Helvetica,sans-Serif" font-size="10.00">/examples/10&#45;Buffering.cxx</text>
</a>
</g>
</g>
<!-- Node4&#45;&gt;Node6 -->
<g id="edge5" class="edge"><title>Node4&#45;&gt;Node6</title>
<path fill="none" stroke="midnightblue" d="M1145,-78.0073C1350.62,-39.3847 1409.45,-75.8208 1612,-42 1614.86,-41.5223 1617.77,-40.9884 1620.7,-40.4107"/>
<polygon fill="midnightblue" stroke="midnightblue" points="1144.26,-74.5853 1135.1,-79.9038 1145.58,-81.4604 1144.26,-74.5853"/>
</g>
<!-- Node7 -->
<g id="node7" class="node"><title>Node7</title>
<g id="a_node7"><a xlink:href="../../d0/dfe/2-TaggedMetrics_8cxx.html" target="_top" xlink:title="/home/travis/build\l/AliceO2Group/Monitoring\l/examples/2&#45;TaggedMetrics.cxx">
<polygon fill="none" stroke="black" points="0,-0.5 0,-41.5 156,-41.5 156,-0.5 0,-0.5"/>
<text text-anchor="start" x="8" y="-29.5" font-family="Helvetica,sans-Serif" font-size="10.00">/home/travis/build</text>
<text text-anchor="start" x="8" y="-18.5" font-family="Helvetica,sans-Serif" font-size="10.00">/AliceO2Group/Monitoring</text>
<text text-anchor="middle" x="78" y="-7.5" font-family="Helvetica,sans-Serif" font-size="10.00">/examples/2&#45;TaggedMetrics.cxx</text>
</a>
</g>
</g>
<!-- Node4&#45;&gt;Node7 -->
<g id="edge6" class="edge"><title>Node4&#45;&gt;Node7</title>
<path fill="none" stroke="midnightblue" d="M978.73,-102.6C819.734,-98.9663 462.267,-86.1629 165,-42 162.087,-41.5673 159.128,-41.0886 156.144,-40.5732"/>
<polygon fill="midnightblue" stroke="midnightblue" points="978.838,-106.104 988.913,-102.827 978.993,-99.1053 978.838,-106.104"/>
</g>
<!-- Node8 -->
<g id="node8" class="node"><title>Node8</title>
<g id="a_node8"><a xlink:href="../../d7/d1d/3-UserDefinedTimestamp_8cxx.html" target="_top" xlink:title="/home/travis/build\l/AliceO2Group/Monitoring\l/examples/3&#45;UserDefinedTimestamp.cxx">
<polygon fill="none" stroke="black" points="174.5,-0.5 174.5,-41.5 369.5,-41.5 369.5,-0.5 174.5,-0.5"/>
<text text-anchor="start" x="182.5" y="-29.5" font-family="Helvetica,sans-Serif" font-size="10.00">/home/travis/build</text>
<text text-anchor="start" x="182.5" y="-18.5" font-family="Helvetica,sans-Serif" font-size="10.00">/AliceO2Group/Monitoring</text>
<text text-anchor="middle" x="272" y="-7.5" font-family="Helvetica,sans-Serif" font-size="10.00">/examples/3&#45;UserDefinedTimestamp.cxx</text>
</a>
</g>
</g>
<!-- Node4&#45;&gt;Node8 -->
<g id="edge7" class="edge"><title>Node4&#45;&gt;Node8</title>
<path fill="none" stroke="midnightblue" d="M978.644,-99.0362C849.534,-90.7644 593.592,-72.039 378,-42 375.218,-41.6123 372.398,-41.2014 369.554,-40.7714"/>
<polygon fill="midnightblue" stroke="midnightblue" points="978.649,-102.544 988.851,-99.6853 979.093,-95.5576 978.649,-102.544"/>
</g>
<!-- Node9 -->
<g id="node9" class="node"><title>Node9</title>
<g id="a_node9"><a xlink:href="../../d2/dbd/4-RateDerivedMetric_8cxx.html" target="_top" xlink:title="/home/travis/build\l/AliceO2Group/Monitoring\l/examples/4&#45;RateDerivedMetric.cxx">
<polygon fill="none" stroke="black" points="387.5,-0.5 387.5,-41.5 560.5,-41.5 560.5,-0.5 387.5,-0.5"/>
<text text-anchor="start" x="395.5" y="-29.5" font-family="Helvetica,sans-Serif" font-size="10.00">/home/travis/build</text>
<text text-anchor="start" x="395.5" y="-18.5" font-family="Helvetica,sans-Serif" font-size="10.00">/AliceO2Group/Monitoring</text>
<text text-anchor="middle" x="474" y="-7.5" font-family="Helvetica,sans-Serif" font-size="10.00">/examples/4&#45;RateDerivedMetric.cxx</text>
</a>
</g>
</g>
<!-- Node4&#45;&gt;Node9 -->
<g id="edge8" class="edge"><title>Node4&#45;&gt;Node9</title>
<path fill="none" stroke="midnightblue" d="M978.468,-95.6169C880.166,-85.2615 712.175,-66.032 569,-42 566.257,-41.5396 563.474,-41.0556 560.665,-40.5527"/>
<polygon fill="midnightblue" stroke="midnightblue" points="978.328,-99.1213 988.638,-96.6828 979.057,-92.1594 978.328,-99.1213"/>
</g>
<!-- Node10 -->
<g id="node10" class="node"><title>Node10</title>
<g id="a_node10"><a xlink:href="../../d5/d3e/5-Benchmark_8cxx.html" target="_top" xlink:title="/home/travis/build\l/AliceO2Group/Monitoring\l/examples/5&#45;Benchmark.cxx">
<polygon fill="none" stroke="black" points="578.5,-0.5 578.5,-41.5 719.5,-41.5 719.5,-0.5 578.5,-0.5"/>
<text text-anchor="start" x="586.5" y="-29.5" font-family="Helvetica,sans-Serif" font-size="10.00">/home/travis/build</text>
<text text-anchor="start" x="586.5" y="-18.5" font-family="Helvetica,sans-Serif" font-size="10.00">/AliceO2Group/Monitoring</text>
<text text-anchor="middle" x="649" y="-7.5" font-family="Helvetica,sans-Serif" font-size="10.00">/examples/5&#45;Benchmark.cxx</text>
</a>
</g>
</g>
<!-- Node4&#45;&gt;Node10 -->
<g id="edge9" class="edge"><title>Node4&#45;&gt;Node10</title>
<path fill="none" stroke="midnightblue" d="M978.564,-90.0485C910.817,-78.3516 812.935,-60.6141 728,-42 725.236,-41.3942 722.422,-40.7611 719.582,-40.1085"/>
<polygon fill="midnightblue" stroke="midnightblue" points="978.305,-93.5552 988.754,-91.8015 979.492,-86.6566 978.305,-93.5552"/>
</g>
<!-- Node11 -->
<g id="node11" class="node"><title>Node11</title>
<g id="a_node11"><a xlink:href="../../d5/d20/6-Increment_8cxx.html" target="_top" xlink:title="/home/travis/build\l/AliceO2Group/Monitoring\l/examples/6&#45;Increment.cxx">
<polygon fill="none" stroke="black" points="737.5,-0.5 737.5,-41.5 872.5,-41.5 872.5,-0.5 737.5,-0.5"/>
<text text-anchor="start" x="745.5" y="-29.5" font-family="Helvetica,sans-Serif" font-size="10.00">/home/travis/build</text>
<text text-anchor="start" x="745.5" y="-18.5" font-family="Helvetica,sans-Serif" font-size="10.00">/AliceO2Group/Monitoring</text>
<text text-anchor="middle" x="805" y="-7.5" font-family="Helvetica,sans-Serif" font-size="10.00">/examples/6&#45;Increment.cxx</text>
</a>
</g>
</g>
<!-- Node4&#45;&gt;Node11 -->
<g id="edge10" class="edge"><title>Node4&#45;&gt;Node11</title>
<path fill="none" stroke="midnightblue" d="M979.012,-77.5214C942.336,-65.8194 899.98,-52.305 866.24,-41.5395"/>
<polygon fill="midnightblue" stroke="midnightblue" points="978.107,-80.9065 988.698,-80.6118 980.235,-74.2377 978.107,-80.9065"/>
</g>
<!-- Node12 -->
<g id="node12" class="node"><title>Node12</title>
<g id="a_node12"><a xlink:href="../../db/d78/7-Latency_8cxx.html" target="_top" xlink:title="/home/travis/build\l/AliceO2Group/Monitoring\l/examples/7&#45;Latency.cxx">
<polygon fill="none" stroke="black" points="891,-0.5 891,-41.5 1019,-41.5 1019,-0.5 891,-0.5"/>
<text text-anchor="start" x="899" y="-29.5" font-family="Helvetica,sans-Serif" font-size="10.00">/home/travis/build</text>
<text text-anchor="start" x="899" y="-18.5" font-family="Helvetica,sans-Serif" font-size="10.00">/AliceO2Group/Monitoring</text>
<text text-anchor="middle" x="955" y="-7.5" font-family="Helvetica,sans-Serif" font-size="10.00">/examples/7&#45;Latency.cxx</text>
</a>
</g>
</g>
<!-- Node4&#45;&gt;Node12 -->
<g id="edge11" class="edge"><title>Node4&#45;&gt;Node12</title>
<path fill="none" stroke="midnightblue" d="M1021.05,-72.6188C1007.49,-62.2248 992.785,-50.9568 980.701,-41.6965"/>
<polygon fill="midnightblue" stroke="midnightblue" points="1019.25,-75.647 1029.32,-78.9517 1023.51,-70.0909 1019.25,-75.647"/>
</g>
<!-- Node13 -->
<g id="node13" class="node"><title>Node13</title>
<g id="a_node13"><a xlink:href="../../d4/df8/8-Multiple_8cxx.html" target="_top" xlink:title="/home/travis/build\l/AliceO2Group/Monitoring\l/examples/8&#45;Multiple.cxx">
<polygon fill="none" stroke="black" points="1037,-0.5 1037,-41.5 1165,-41.5 1165,-0.5 1037,-0.5"/>
<text text-anchor="start" x="1045" y="-29.5" font-family="Helvetica,sans-Serif" font-size="10.00">/home/travis/build</text>
<text text-anchor="start" x="1045" y="-18.5" font-family="Helvetica,sans-Serif" font-size="10.00">/AliceO2Group/Monitoring</text>
<text text-anchor="middle" x="1101" y="-7.5" font-family="Helvetica,sans-Serif" font-size="10.00">/examples/8&#45;Multiple.cxx</text>
</a>
</g>
</g>
<!-- Node4&#45;&gt;Node13 -->
<g id="edge12" class="edge"><title>Node4&#45;&gt;Node13</title>
<path fill="none" stroke="midnightblue" d="M1078.33,-69.6562C1082.87,-60.1167 1087.64,-50.0832 1091.63,-41.6965"/>
<polygon fill="midnightblue" stroke="midnightblue" points="1075.05,-68.4178 1073.91,-78.9517 1081.37,-71.4244 1075.05,-68.4178"/>
</g>
<!-- Node14 -->
<g id="node14" class="node"><title>Node14</title>
<g id="a_node14"><a xlink:href="../../d6/d9f/9-Timer_8cxx.html" target="_top" xlink:title="/home/travis/build\l/AliceO2Group/Monitoring\l/examples/9&#45;Timer.cxx">
<polygon fill="none" stroke="black" points="1183,-0.5 1183,-41.5 1311,-41.5 1311,-0.5 1183,-0.5"/>
<text text-anchor="start" x="1191" y="-29.5" font-family="Helvetica,sans-Serif" font-size="10.00">/home/travis/build</text>
<text text-anchor="start" x="1191" y="-18.5" font-family="Helvetica,sans-Serif" font-size="10.00">/AliceO2Group/Monitoring</text>
<text text-anchor="middle" x="1247" y="-7.5" font-family="Helvetica,sans-Serif" font-size="10.00">/examples/9&#45;Timer.cxx</text>
</a>
</g>
</g>
<!-- Node4&#45;&gt;Node14 -->
<g id="edge13" class="edge"><title>Node4&#45;&gt;Node14</title>
<path fill="none" stroke="midnightblue" d="M1127.89,-74.7943C1152.77,-63.7683 1180.45,-51.4985 1202.86,-41.5645"/>
<polygon fill="midnightblue" stroke="midnightblue" points="1126.24,-71.6997 1118.51,-78.9517 1129.07,-78.0992 1126.24,-71.6997"/>
</g>
<!-- Node15 -->
<g id="node15" class="node"><title>Node15</title>
<g id="a_node15"><a xlink:href="../../d6/d98/MonitoringFactory_8cxx.html" target="_top" xlink:title="/home/travis/build\l/AliceO2Group/Monitoring\l/src/MonitoringFactory.cxx">
<polygon fill="none" stroke="black" points="1775.5,-0.5 1775.5,-41.5 1908.5,-41.5 1908.5,-0.5 1775.5,-0.5"/>
<text text-anchor="start" x="1783.5" y="-29.5" font-family="Helvetica,sans-Serif" font-size="10.00">/home/travis/build</text>
<text text-anchor="start" x="1783.5" y="-18.5" font-family="Helvetica,sans-Serif" font-size="10.00">/AliceO2Group/Monitoring</text>
<text text-anchor="middle" x="1842" y="-7.5" font-family="Helvetica,sans-Serif" font-size="10.00">/src/MonitoringFactory.cxx</text>
</a>
</g>
</g>
<!-- Node4&#45;&gt;Node15 -->
<g id="edge14" class="edge"><title>Node4&#45;&gt;Node15</title>
<path fill="none" stroke="midnightblue" d="M1145.3,-77.9747C1418.2,-29.157 1495.86,-84.9211 1766,-42 1769.1,-41.5076 1772.25,-40.9422 1775.43,-40.321"/>
<polygon fill="midnightblue" stroke="midnightblue" points="1144.3,-74.5985 1135.09,-79.8328 1145.55,-81.4853 1144.3,-74.5985"/>
</g>
<!-- Node16 -->
<g id="node16" class="node"><title>Node16</title>
<g id="a_node16"><a xlink:href="../../d7/dd5/testMonitoring_8cxx.html" target="_top" xlink:title="/home/travis/build\l/AliceO2Group/Monitoring\l/test/testMonitoring.cxx">
<polygon fill="none" stroke="black" points="1329,-0.5 1329,-41.5 1457,-41.5 1457,-0.5 1329,-0.5"/>
<text text-anchor="start" x="1337" y="-29.5" font-family="Helvetica,sans-Serif" font-size="10.00">/home/travis/build</text>
<text text-anchor="start" x="1337" y="-18.5" font-family="Helvetica,sans-Serif" font-size="10.00">/AliceO2Group/Monitoring</text>
<text text-anchor="middle" x="1393" y="-7.5" font-family="Helvetica,sans-Serif" font-size="10.00">/test/testMonitoring.cxx</text>
</a>
</g>
</g>
<!-- Node4&#45;&gt;Node16 -->
<g id="edge15" class="edge"><title>Node4&#45;&gt;Node16</title>
<path fill="none" stroke="midnightblue" d="M1145,-77.8478C1223,-58.0812 1245.38,-59.8336 1320,-42 1322.94,-41.2975 1325.94,-40.5598 1328.97,-39.7988"/>
<polygon fill="midnightblue" stroke="midnightblue" points="1144.02,-74.4866 1135.21,-80.3678 1145.76,-81.2659 1144.02,-74.4866"/>
</g>
<!-- Node19 -->
<g id="node19" class="node"><title>Node19</title>
<g id="a_node19"><a xlink:href="../../dc/d7a/ApMonBackend_8cxx.html" target="_top" xlink:title="/home/travis/build\l/AliceO2Group/Monitoring\l/src/Backends/ApMonBackend.cxx">
<polygon fill="none" stroke="black" points="2054,-84.5 2054,-125.5 2224,-125.5 2224,-84.5 2054,-84.5"/>
<text text-anchor="start" x="2062" y="-113.5" font-family="Helvetica,sans-Serif" font-size="10.00">/home/travis/build</text>
<text text-anchor="start" x="2062" y="-102.5" font-family="Helvetica,sans-Serif" font-size="10.00">/AliceO2Group/Monitoring</text>
<text text-anchor="middle" x="2139" y="-91.5" font-family="Helvetica,sans-Serif" font-size="10.00">/src/Backends/ApMonBackend.cxx</text>
</a>
</g>
</g>
<!-- Node18&#45;&gt;Node19 -->
<g id="edge18" class="edge"><title>Node18&#45;&gt;Node19</title>
<path fill="none" stroke="midnightblue" d="M2139,-157.881C2139,-147.133 2139,-135.309 2139,-125.667"/>
<polygon fill="midnightblue" stroke="midnightblue" points="2135.5,-158.15 2139,-168.15 2142.5,-158.15 2135.5,-158.15"/>
</g>
<!-- Node20 -->
<g id="node20" class="node"><title>Node20</title>
<g id="a_node20"><a xlink:href="../../d2/d31/testApMon_8cxx.html" target="_top" xlink:title="/home/travis/build\l/AliceO2Group/Monitoring\l/test/testApMon.cxx">
<polygon fill="none" stroke="black" points="2242,-84.5 2242,-125.5 2370,-125.5 2370,-84.5 2242,-84.5"/>
<text text-anchor="start" x="2250" y="-113.5" font-family="Helvetica,sans-Serif" font-size="10.00">/home/travis/build</text>
<text text-anchor="start" x="2250" y="-102.5" font-family="Helvetica,sans-Serif" font-size="10.00">/AliceO2Group/Monitoring</text>
<text text-anchor="middle" x="2306" y="-91.5" font-family="Helvetica,sans-Serif" font-size="10.00">/test/testApMon.cxx</text>
</a>
</g>
</g>
<!-- Node18&#45;&gt;Node20 -->
<g id="edge19" class="edge"><title>Node18&#45;&gt;Node20</title>
<path fill="none" stroke="midnightblue" d="M2188.24,-163.823C2213.02,-151.652 2242.68,-137.089 2266.04,-125.623"/>
<polygon fill="midnightblue" stroke="midnightblue" points="2186.43,-160.81 2179,-168.359 2189.52,-167.093 2186.43,-160.81"/>
</g>
<!-- Node21&#45;&gt;Node15 -->
<g id="edge23" class="edge"><title>Node21&#45;&gt;Node15</title>
<path fill="none" stroke="midnightblue" d="M1678.28,-177.774C1733.81,-168.577 1803.38,-153.236 1823,-132 1845.62,-107.514 1846.42,-66.2751 1844.51,-41.8486"/>
<polygon fill="midnightblue" stroke="midnightblue" points="1677.4,-174.37 1668.09,-179.42 1678.52,-181.281 1677.4,-174.37"/>
</g>
<!-- Node21&#45;&gt;Node17 -->
<g id="edge22" class="edge"><title>Node21&#45;&gt;Node17</title>
<path fill="none" stroke="midnightblue" d="M1530.04,-169.113C1528.34,-168.733 1526.66,-168.361 1525,-168 1437.6,-149.013 1414.55,-150.293 1327,-132 1312.11,-128.89 1296.16,-125.28 1281.15,-121.757"/>
<polygon fill="midnightblue" stroke="midnightblue" points="1529.31,-172.538 1539.84,-171.369 1530.88,-165.716 1529.31,-172.538"/>
</g>
<!-- Node22 -->
<g id="node22" class="node"><title>Node22</title>
<g id="a_node22"><a xlink:href="../../d7/d21/Flume_8cxx.html" target="_top" xlink:title="/home/travis/build\l/AliceO2Group/Monitoring\l/src/Backends/Flume.cxx">
<polygon fill="none" stroke="black" points="1540,-84.5 1540,-125.5 1668,-125.5 1668,-84.5 1540,-84.5"/>
<text text-anchor="start" x="1548" y="-113.5" font-family="Helvetica,sans-Serif" font-size="10.00">/home/travis/build</text>
<text text-anchor="start" x="1548" y="-102.5" font-family="Helvetica,sans-Serif" font-size="10.00">/AliceO2Group/Monitoring</text>
<text text-anchor="middle" x="1604" y="-91.5" font-family="Helvetica,sans-Serif" font-size="10.00">/src/Backends/Flume.cxx</text>
</a>
</g>
</g>
<!-- Node21&#45;&gt;Node22 -->
<g id="edge21" class="edge"><title>Node21&#45;&gt;Node22</title>
<path fill="none" stroke="midnightblue" d="M1604,-157.881C1604,-147.133 1604,-135.309 1604,-125.667"/>
<polygon fill="midnightblue" stroke="midnightblue" points="1600.5,-158.15 1604,-168.15 1607.5,-158.15 1600.5,-158.15"/>
</g>
<!-- Node23 -->
<g id="node23" class="node"><title>Node23</title>
<g id="a_node23"><a xlink:href="../../dd/d7a/testFlume_8cxx.html" target="_top" xlink:title="/home/travis/build\l/AliceO2Group/Monitoring\l/test/testFlume.cxx">
<polygon fill="none" stroke="black" points="1686,-84.5 1686,-125.5 1814,-125.5 1814,-84.5 1686,-84.5"/>
<text text-anchor="start" x="1694" y="-113.5" font-family="Helvetica,sans-Serif" font-size="10.00">/home/travis/build</text>
<text text-anchor="start" x="1694" y="-102.5" font-family="Helvetica,sans-Serif" font-size="10.00">/AliceO2Group/Monitoring</text>
<text text-anchor="middle" x="1750" y="-91.5" font-family="Helvetica,sans-Serif" font-size="10.00">/test/testFlume.cxx</text>
</a>
</g>
</g>
<!-- Node21&#45;&gt;Node23 -->
<g id="edge24" class="edge"><title>Node21&#45;&gt;Node23</title>
<path fill="none" stroke="midnightblue" d="M1647.91,-163.339C1669.4,-151.268 1694.92,-136.938 1715.06,-125.623"/>
<polygon fill="midnightblue" stroke="midnightblue" points="1645.98,-160.41 1638.97,-168.359 1649.4,-166.514 1645.98,-160.41"/>
</g>
<!-- Node25 -->
<g id="node25" class="node"><title>Node25</title>
<g id="a_node25"><a xlink:href="../../d8/dd1/InfluxDB_8cxx.html" target="_top" xlink:title="/home/travis/build\l/AliceO2Group/Monitoring\l/src/Backends/InfluxDB.cxx">
<polygon fill="none" stroke="black" points="2388,-84.5 2388,-125.5 2528,-125.5 2528,-84.5 2388,-84.5"/>
<text text-anchor="start" x="2396" y="-113.5" font-family="Helvetica,sans-Serif" font-size="10.00">/home/travis/build</text>
<text text-anchor="start" x="2396" y="-102.5" font-family="Helvetica,sans-Serif" font-size="10.00">/AliceO2Group/Monitoring</text>
<text text-anchor="middle" x="2458" y="-91.5" font-family="Helvetica,sans-Serif" font-size="10.00">/src/Backends/InfluxDB.cxx</text>
</a>
</g>
</g>
<!-- Node24&#45;&gt;Node25 -->
<g id="edge26" class="edge"><title>Node24&#45;&gt;Node25</title>
<path fill="none" stroke="midnightblue" d="M2458,-157.881C2458,-147.133 2458,-135.309 2458,-125.667"/>
<polygon fill="midnightblue" stroke="midnightblue" points="2454.5,-158.15 2458,-168.15 2461.5,-158.15 2454.5,-158.15"/>
</g>
<!-- Node26 -->
<g id="node26" class="node"><title>Node26</title>
<g id="a_node26"><a xlink:href="../../de/df5/testInfluxDb_8cxx.html" target="_top" xlink:title="/home/travis/build\l/AliceO2Group/Monitoring\l/test/testInfluxDb.cxx">
<polygon fill="none" stroke="black" points="2546,-84.5 2546,-125.5 2674,-125.5 2674,-84.5 2546,-84.5"/>
<text text-anchor="start" x="2554" y="-113.5" font-family="Helvetica,sans-Serif" font-size="10.00">/home/travis/build</text>
<text text-anchor="start" x="2554" y="-102.5" font-family="Helvetica,sans-Serif" font-size="10.00">/AliceO2Group/Monitoring</text>
<text text-anchor="middle" x="2610" y="-91.5" font-family="Helvetica,sans-Serif" font-size="10.00">/test/testInfluxDb.cxx</text>
</a>
</g>
</g>
<!-- Node24&#45;&gt;Node26 -->
<g id="edge27" class="edge"><title>Node24&#45;&gt;Node26</title>
<path fill="none" stroke="midnightblue" d="M2503.41,-163.501C2525.85,-151.396 2552.56,-136.988 2573.63,-125.623"/>
<polygon fill="midnightblue" stroke="midnightblue" points="2501.55,-160.531 2494.41,-168.359 2504.87,-166.691 2501.55,-160.531"/>
</g>
<!-- Node27&#45;&gt;Node15 -->
<g id="edge31" class="edge"><title>Node27&#45;&gt;Node15</title>
<path fill="none" stroke="midnightblue" d="M1360.38,-163.564C1347.08,-155.595 1334.85,-145.263 1327,-132 1314.78,-111.346 1310.74,-95.6504 1327,-78 1360.16,-42.0067 1717.76,-50.2594 1766,-42 1769.09,-41.4704 1772.24,-40.8746 1775.42,-40.2286"/>
<polygon fill="midnightblue" stroke="midnightblue" points="1358.8,-166.687 1369.24,-168.467 1362.19,-160.563 1358.8,-166.687"/>
</g>
<!-- Node27&#45;&gt;Node17 -->
<g id="edge30" class="edge"><title>Node27&#45;&gt;Node17</title>
<path fill="none" stroke="midnightblue" d="M1368.8,-164.714C1336.79,-152.336 1297.9,-137.29 1267.49,-125.529"/>
<polygon fill="midnightblue" stroke="midnightblue" points="1367.9,-168.12 1378.49,-168.463 1370.43,-161.591 1367.9,-168.12"/>
</g>
<!-- Node28 -->
<g id="node28" class="node"><title>Node28</title>
<g id="a_node28"><a xlink:href="../../dc/d95/InfoLoggerBackend_8cxx.html" target="_top" xlink:title="/home/travis/build\l/AliceO2Group/Monitoring\l/src/Backends/InfoLoggerBackend.cxx">
<polygon fill="none" stroke="black" points="1336.5,-84.5 1336.5,-125.5 1521.5,-125.5 1521.5,-84.5 1336.5,-84.5"/>
<text text-anchor="start" x="1344.5" y="-113.5" font-family="Helvetica,sans-Serif" font-size="10.00">/home/travis/build</text>
<text text-anchor="start" x="1344.5" y="-102.5" font-family="Helvetica,sans-Serif" font-size="10.00">/AliceO2Group/Monitoring</text>
<text text-anchor="middle" x="1429" y="-91.5" font-family="Helvetica,sans-Serif" font-size="10.00">/src/Backends/InfoLoggerBackend.cxx</text>
</a>
</g>
</g>
<!-- Node27&#45;&gt;Node28 -->
<g id="edge29" class="edge"><title>Node27&#45;&gt;Node28</title>
<path fill="none" stroke="midnightblue" d="M1429,-157.881C1429,-147.133 1429,-135.309 1429,-125.667"/>
<polygon fill="midnightblue" stroke="midnightblue" points="1425.5,-158.15 1429,-168.15 1432.5,-158.15 1425.5,-158.15"/>
</g>
<!-- Node29&#45;&gt;Node15 -->
<g id="edge33" class="edge"><title>Node29&#45;&gt;Node15</title>
<path fill="none" stroke="midnightblue" d="M1980.36,-162.565C1991.05,-154.313 2001.03,-144.101 2007,-132 2017.62,-110.476 2020.98,-97.5079 2007,-78 1984.71,-46.8953 1944.16,-32.857 1908.84,-26.6137"/>
<polygon fill="midnightblue" stroke="midnightblue" points="1978.19,-159.818 1972.1,-168.492 1982.27,-165.506 1978.19,-159.818"/>
</g>
<!-- Node30 -->
<g id="node30" class="node"><title>Node30</title>
<g id="a_node30"><a xlink:href="../../dd/da7/testNoop_8cxx.html" target="_top" xlink:title="/home/travis/build\l/AliceO2Group/Monitoring\l/test/testNoop.cxx">
<polygon fill="none" stroke="black" points="1870,-84.5 1870,-125.5 1998,-125.5 1998,-84.5 1870,-84.5"/>
<text text-anchor="start" x="1878" y="-113.5" font-family="Helvetica,sans-Serif" font-size="10.00">/home/travis/build</text>
<text text-anchor="start" x="1878" y="-102.5" font-family="Helvetica,sans-Serif" font-size="10.00">/AliceO2Group/Monitoring</text>
<text text-anchor="middle" x="1934" y="-91.5" font-family="Helvetica,sans-Serif" font-size="10.00">/test/testNoop.cxx</text>
</a>
</g>
</g>
<!-- Node29&#45;&gt;Node30 -->
<g id="edge34" class="edge"><title>Node29&#45;&gt;Node30</title>
<path fill="none" stroke="midnightblue" d="M1934,-157.881C1934,-147.133 1934,-135.309 1934,-125.667"/>
<polygon fill="midnightblue" stroke="midnightblue" points="1930.5,-158.15 1934,-168.15 1937.5,-158.15 1930.5,-158.15"/>
</g>
<!-- Node31&#45;&gt;Node3 -->
<g id="edge36" class="edge"><title>Node31&#45;&gt;Node3</title>
<path fill="none" stroke="midnightblue" d="M945.397,-249.594C1006.93,-239.024 1087.75,-224.574 1159,-210 1162.04,-209.379 1165.13,-208.733 1168.25,-208.069"/>
<polygon fill="midnightblue" stroke="midnightblue" points="944.57,-246.184 935.304,-251.322 945.752,-253.084 944.57,-246.184"/>
</g>
<!-- Node32 -->
<g id="node32" class="node"><title>Node32</title>
<g id="a_node32"><a xlink:href="../../d3/da1/DerivedMetrics_8cxx.html" target="_top" xlink:title="/home/travis/build\l/AliceO2Group/Monitoring\l/src/DerivedMetrics.cxx">
<polygon fill="none" stroke="black" points="569,-168.5 569,-209.5 697,-209.5 697,-168.5 569,-168.5"/>
<text text-anchor="start" x="577" y="-197.5" font-family="Helvetica,sans-Serif" font-size="10.00">/home/travis/build</text>
<text text-anchor="start" x="577" y="-186.5" font-family="Helvetica,sans-Serif" font-size="10.00">/AliceO2Group/Monitoring</text>
<text text-anchor="middle" x="633" y="-175.5" font-family="Helvetica,sans-Serif" font-size="10.00">/src/DerivedMetrics.cxx</text>
</a>
</g>
</g>
<!-- Node31&#45;&gt;Node32 -->
<g id="edge37" class="edge"><title>Node31&#45;&gt;Node32</title>
<path fill="none" stroke="midnightblue" d="M782.311,-243.026C752.185,-232.328 716.726,-219.734 687.924,-209.506"/>
<polygon fill="midnightblue" stroke="midnightblue" points="781.295,-246.38 791.89,-246.428 783.638,-239.783 781.295,-246.38"/>
</g>
<!-- Node33 -->
<g id="node33" class="node"><title>Node33</title>
<g id="a_node33"><a xlink:href="../../d6/dfa/testDerived_8cxx.html" target="_top" xlink:title="/home/travis/build\l/AliceO2Group/Monitoring\l/test/testDerived.cxx">
<polygon fill="none" stroke="black" points="715,-168.5 715,-209.5 843,-209.5 843,-168.5 715,-168.5"/>
<text text-anchor="start" x="723" y="-197.5" font-family="Helvetica,sans-Serif" font-size="10.00">/home/travis/build</text>
<text text-anchor="start" x="723" y="-186.5" font-family="Helvetica,sans-Serif" font-size="10.00">/AliceO2Group/Monitoring</text>
<text text-anchor="middle" x="779" y="-175.5" font-family="Helvetica,sans-Serif" font-size="10.00">/test/testDerived.cxx</text>
</a>
</g>
</g>
<!-- Node31&#45;&gt;Node33 -->
<g id="edge38" class="edge"><title>Node31&#45;&gt;Node33</title>
<path fill="none" stroke="midnightblue" d="M822.767,-238.916C814.076,-229.203 804.455,-218.45 796.452,-209.506"/>
<polygon fill="midnightblue" stroke="midnightblue" points="820.212,-241.309 829.488,-246.428 825.429,-236.642 820.212,-241.309"/>
</g>
<!-- Node34&#45;&gt;Node3 -->
<g id="edge40" class="edge"><title>Node34&#45;&gt;Node3</title>
<path fill="none" stroke="midnightblue" d="M1202.23,-238.916C1210.92,-229.203 1220.54,-218.45 1228.55,-209.506"/>
<polygon fill="midnightblue" stroke="midnightblue" points="1199.57,-236.642 1195.51,-246.428 1204.79,-241.309 1199.57,-236.642"/>
</g>
<!-- Node35 -->
<g id="node35" class="node"><title>Node35</title>
<g id="a_node35"><a xlink:href="../../d3/d6e/ProcessMonitor_8cxx.html" target="_top" xlink:title="/home/travis/build\l/AliceO2Group/Monitoring\l/src/ProcessMonitor.cxx">
<polygon fill="none" stroke="black" points="861,-168.5 861,-209.5 989,-209.5 989,-168.5 861,-168.5"/>
<text text-anchor="start" x="869" y="-197.5" font-family="Helvetica,sans-Serif" font-size="10.00">/home/travis/build</text>
<text text-anchor="start" x="869" y="-186.5" font-family="Helvetica,sans-Serif" font-size="10.00">/AliceO2Group/Monitoring</text>
<text text-anchor="middle" x="925" y="-175.5" font-family="Helvetica,sans-Serif" font-size="10.00">/src/ProcessMonitor.cxx</text>
</a>
</g>
</g>
<!-- Node34&#45;&gt;Node35 -->
<g id="edge41" class="edge"><title>Node34&#45;&gt;Node35</title>
<path fill="none" stroke="midnightblue" d="M1102.83,-243.419C1066.63,-232.545 1023.68,-219.643 989.057,-209.242"/>
<polygon fill="midnightblue" stroke="midnightblue" points="1102.26,-246.903 1112.85,-246.428 1104.28,-240.199 1102.26,-246.903"/>
</g>
<!-- Node36 -->
<g id="node36" class="node"><title>Node36</title>
<g id="a_node36"><a xlink:href="../../d5/d84/testProcessMonitor_8cxx.html" target="_top" xlink:title="/home/travis/build\l/AliceO2Group/Monitoring\l/test/testProcessMonitor.cxx">
<polygon fill="none" stroke="black" points="1007.5,-168.5 1007.5,-209.5 1150.5,-209.5 1150.5,-168.5 1007.5,-168.5"/>
<text text-anchor="start" x="1015.5" y="-197.5" font-family="Helvetica,sans-Serif" font-size="10.00">/home/travis/build</text>
<text text-anchor="start" x="1015.5" y="-186.5" font-family="Helvetica,sans-Serif" font-size="10.00">/AliceO2Group/Monitoring</text>
<text text-anchor="middle" x="1079" y="-175.5" font-family="Helvetica,sans-Serif" font-size="10.00">/test/testProcessMonitor.cxx</text>
</a>
</g>
</g>
<!-- Node34&#45;&gt;Node36 -->
<g id="edge42" class="edge"><title>Node34&#45;&gt;Node36</title>
<path fill="none" stroke="midnightblue" d="M1144.22,-240.065C1131.18,-230.057 1116.52,-218.804 1104.41,-209.506"/>
<polygon fill="midnightblue" stroke="midnightblue" points="1142.44,-243.115 1152.51,-246.428 1146.7,-237.562 1142.44,-243.115"/>
</g>
</g>
</svg>
