<?xml version="1.0" encoding="UTF-8" standalone="no"?>
<!DOCTYPE svg PUBLIC "-//W3C//DTD SVG 1.1//EN"
 "http://www.w3.org/Graphics/SVG/1.1/DTD/svg11.dtd">
<!-- Generated by graphviz version 2.36.0 (20140111.2315)
 -->
<!-- Title: /home/travis/build/AliceO2Group/Monitoring/test/testNoop.cxx Pages: 1 -->
<svg width="498pt" height="330pt"
 viewBox="0.00 0.00 498.00 330.00" xmlns="http://www.w3.org/2000/svg" xmlns:xlink="http://www.w3.org/1999/xlink">
<g id="graph0" class="graph" transform="scale(1 1) rotate(0) translate(4 326)">
<title>/home/travis/build/AliceO2Group/Monitoring/test/testNoop.cxx</title>
<!-- Node1 -->
<g id="node1" class="node"><title>Node1</title>
<polygon fill="#bfbfbf" stroke="black" points="64,-280.5 64,-321.5 192,-321.5 192,-280.5 64,-280.5"/>
<text text-anchor="start" x="72" y="-309.5" font-family="Helvetica,sans-Serif" font-size="10.00">/home/travis/build</text>
<text text-anchor="start" x="72" y="-298.5" font-family="Helvetica,sans-Serif" font-size="10.00">/AliceO2Group/Monitoring</text>
<text text-anchor="middle" x="128" y="-287.5" font-family="Helvetica,sans-Serif" font-size="10.00">/test/testNoop.cxx</text>
</g>
<!-- Node2 -->
<g id="node2" class="node"><title>Node2</title>
<polygon fill="none" stroke="#bfbfbf" points="-0.5,-224.5 -0.5,-243.5 118.5,-243.5 118.5,-224.5 -0.5,-224.5"/>
<text text-anchor="middle" x="59" y="-231.5" font-family="Helvetica,sans-Serif" font-size="10.00">boost/test/unit_test.hpp</text>
</g>
<!-- Node1&#45;&gt;Node2 -->
<g id="edge1" class="edge"><title>Node1&#45;&gt;Node2</title>
<path fill="none" stroke="midnightblue" d="M107.298,-280.498C97.1256,-270.915 85.0375,-259.528 75.4993,-250.543"/>
<polygon fill="midnightblue" stroke="midnightblue" points="77.8638,-247.962 68.185,-243.652 73.0639,-253.057 77.8638,-247.962"/>
</g>
<!-- Node3 -->
<g id="node3" class="node"><title>Node3</title>
<g id="a_node3"><a xlink:href="../../dd/d5f/Noop_8h.html" target="_top" xlink:title="../src/Backends/Noop.h">
<polygon fill="none" stroke="black" points="137,-224.5 137,-243.5 257,-243.5 257,-224.5 137,-224.5"/>
<text text-anchor="middle" x="197" y="-231.5" font-family="Helvetica,sans-Serif" font-size="10.00">../src/Backends/Noop.h</text>
</a>
</g>
</g>
<!-- Node1&#45;&gt;Node3 -->
<g id="edge2" class="edge"><title>Node1&#45;&gt;Node3</title>
<path fill="none" stroke="midnightblue" d="M148.702,-280.498C158.874,-270.915 170.962,-259.528 180.501,-250.543"/>
<polygon fill="midnightblue" stroke="midnightblue" points="182.936,-253.057 187.815,-243.652 178.136,-247.962 182.936,-253.057"/>
</g>
<!-- Node4 -->
<g id="node4" class="node"><title>Node4</title>
<g id="a_node4"><a xlink:href="../../df/d83/Backend_8h.html" target="_top" xlink:title="Monitoring/Backend.h">
<polygon fill="none" stroke="black" points="141.5,-168.5 141.5,-187.5 252.5,-187.5 252.5,-168.5 141.5,-168.5"/>
<text text-anchor="middle" x="197" y="-175.5" font-family="Helvetica,sans-Serif" font-size="10.00">Monitoring/Backend.h</text>
</a>
</g>
</g>
<!-- Node3&#45;&gt;Node4 -->
<g id="edge3" class="edge"><title>Node3&#45;&gt;Node4</title>
<path fill="none" stroke="midnightblue" d="M197,-224.083C197,-217.006 197,-206.861 197,-197.986"/>
<polygon fill="midnightblue" stroke="midnightblue" points="200.5,-197.751 197,-187.751 193.5,-197.751 200.5,-197.751"/>
</g>
<!-- Node5 -->
<g id="node5" class="node"><title>Node5</title>
<polygon fill="none" stroke="#bfbfbf" points="174,-56.5 174,-75.5 220,-75.5 220,-56.5 174,-56.5"/>
<text text-anchor="middle" x="197" y="-63.5" font-family="Helvetica,sans-Serif" font-size="10.00">chrono</text>
</g>
<!-- Node4&#45;&gt;Node5 -->
<g id="edge4" class="edge"><title>Node4&#45;&gt;Node5</title>
<path fill="none" stroke="midnightblue" d="M197,-168.368C197,-150.617 197,-109.666 197,-85.5974"/>
<polygon fill="midnightblue" stroke="midnightblue" points="200.5,-85.5914 197,-75.5914 193.5,-85.5915 200.5,-85.5914"/>
</g>
<!-- Node6 -->
<g id="node6" class="node"><title>Node6</title>
<polygon fill="none" stroke="#bfbfbf" points="348.5,-0.5 348.5,-19.5 389.5,-19.5 389.5,-0.5 348.5,-0.5"/>
<text text-anchor="middle" x="369" y="-7.5" font-family="Helvetica,sans-Serif" font-size="10.00">string</text>
</g>
<!-- Node4&#45;&gt;Node6 -->
<g id="edge5" class="edge"><title>Node4&#45;&gt;Node6</title>
<path fill="none" stroke="midnightblue" d="M190.139,-168.328C174.041,-146.874 137.236,-90.5557 165,-56 186.367,-29.4066 286.489,-17.5974 338.084,-13.2046"/>
<polygon fill="midnightblue" stroke="midnightblue" points="338.626,-16.6722 348.311,-12.3771 338.061,-9.69504 338.626,-16.6722"/>
</g>
<!-- Node7 -->
<g id="node7" class="node"><title>Node7</title>
<g id="a_node7"><a xlink:href="../../d9/d92/Metric_8h.html" target="_top" xlink:title="Monitoring/Metric.h">
<polygon fill="none" stroke="black" points="276,-112.5 276,-131.5 376,-131.5 376,-112.5 276,-112.5"/>
<text text-anchor="middle" x="326" y="-119.5" font-family="Helvetica,sans-Serif" font-size="10.00">Monitoring/Metric.h</text>
</a>
</g>
</g>
<!-- Node4&#45;&gt;Node7 -->
<g id="edge6" class="edge"><title>Node4&#45;&gt;Node7</title>
<path fill="none" stroke="midnightblue" d="M217.44,-168.444C238.67,-159.557 272.099,-145.563 296.255,-135.451"/>
<polygon fill="midnightblue" stroke="midnightblue" points="297.782,-138.606 305.655,-131.516 295.079,-132.149 297.782,-138.606"/>
</g>
<!-- Node7&#45;&gt;Node5 -->
<g id="edge8" class="edge"><title>Node7&#45;&gt;Node5</title>
<path fill="none" stroke="midnightblue" d="M305.56,-112.444C284.33,-103.557 250.901,-89.5632 226.745,-79.4514"/>
<polygon fill="midnightblue" stroke="midnightblue" points="227.921,-76.1493 217.345,-75.5164 225.218,-82.6064 227.921,-76.1493"/>
</g>
<!-- Node7&#45;&gt;Node6 -->
<g id="edge7" class="edge"><title>Node7&#45;&gt;Node6</title>
<path fill="none" stroke="midnightblue" d="M351.504,-112.472C367.987,-105.478 388.139,-93.792 398,-76 406.845,-60.0415 395.839,-40.8681 384.939,-27.4974"/>
<polygon fill="midnightblue" stroke="midnightblue" points="387.244,-24.8199 378.001,-19.6411 381.997,-29.4535 387.244,-24.8199"/>
</g>
<!-- Node8 -->
<g id="node8" class="node"><title>Node8</title>
<polygon fill="none" stroke="#bfbfbf" points="446,-56.5 446,-75.5 490,-75.5 490,-56.5 446,-56.5"/>
<text text-anchor="middle" x="468" y="-63.5" font-family="Helvetica,sans-Serif" font-size="10.00">vector</text>
</g>
<!-- Node7&#45;&gt;Node8 -->
<g id="edge9" class="edge"><title>Node7&#45;&gt;Node8</title>
<path fill="none" stroke="midnightblue" d="M348.5,-112.444C372.077,-103.478 409.322,-89.314 435.964,-79.1827"/>
<polygon fill="midnightblue" stroke="midnightblue" points="437.502,-82.3424 445.605,-75.5164 435.014,-75.7995 437.502,-82.3424"/>
</g>
<!-- Node9 -->
<g id="node9" class="node"><title>Node9</title>
<polygon fill="none" stroke="#bfbfbf" points="238,-56.5 238,-75.5 330,-75.5 330,-56.5 238,-56.5"/>
<text text-anchor="middle" x="284" y="-63.5" font-family="Helvetica,sans-Serif" font-size="10.00">boost/variant.hpp</text>
</g>
<!-- Node7&#45;&gt;Node9 -->
<g id="edge10" class="edge"><title>Node7&#45;&gt;Node9</title>
<path fill="none" stroke="midnightblue" d="M319.065,-112.083C313.071,-104.377 304.248,-93.0333 296.952,-83.6531"/>
<polygon fill="midnightblue" stroke="midnightblue" points="299.709,-81.4958 290.806,-75.7511 294.183,-85.7934 299.709,-81.4958"/>
</g>
<!-- Node10 -->
<g id="node10" class="node"><title>Node10</title>
<g id="a_node10"><a xlink:href="../../d9/d33/Tag_8h.html" target="_top" xlink:title="Tag.h">
<polygon fill="none" stroke="black" points="348.5,-56.5 348.5,-75.5 389.5,-75.5 389.5,-56.5 348.5,-56.5"/>
<text text-anchor="middle" x="369" y="-63.5" font-family="Helvetica,sans-Serif" font-size="10.00">Tag.h</text>
</a>
</g>
</g>
<!-- Node7&#45;&gt;Node10 -->
<g id="edge11" class="edge"><title>Node7&#45;&gt;Node10</title>
<path fill="none" stroke="midnightblue" d="M333.101,-112.083C339.237,-104.377 348.27,-93.0333 355.739,-83.6531"/>
<polygon fill="midnightblue" stroke="midnightblue" points="358.54,-85.7542 362.032,-75.7511 353.064,-81.3936 358.54,-85.7542"/>
</g>
<!-- Node10&#45;&gt;Node6 -->
<g id="edge12" class="edge"><title>Node10&#45;&gt;Node6</title>
<path fill="none" stroke="midnightblue" d="M369,-56.083C369,-49.0059 369,-38.8611 369,-29.9865"/>
<polygon fill="midnightblue" stroke="midnightblue" points="372.5,-29.751 369,-19.7511 365.5,-29.7511 372.5,-29.751"/>
</g>
</g>
</svg>
