<?xml version="1.0" encoding="UTF-8" standalone="no"?>
<!DOCTYPE svg PUBLIC "-//W3C//DTD SVG 1.1//EN"
 "http://www.w3.org/Graphics/SVG/1.1/DTD/svg11.dtd">
<!-- Generated by graphviz version 2.36.0 (20140111.2315)
 -->
<!-- Title: o2::monitoring::Backend Pages: 1 -->
<svg width="710pt" height="304pt"
 viewBox="0.00 0.00 710.00 304.00" xmlns="http://www.w3.org/2000/svg" xmlns:xlink="http://www.w3.org/1999/xlink">
<g id="graph0" class="graph" transform="scale(1 1) rotate(0) translate(4 300)">
<title>o2::monitoring::Backend</title>
<!-- Node1 -->
<g id="node1" class="node"><title>Node1</title>
<polygon fill="#bfbfbf" stroke="black" points="290,-183 290,-295 412,-295 412,-183 290,-183"/>
<text text-anchor="middle" x="351" y="-283" font-family="Helvetica,sans-Serif" font-size="10.00">o2::monitoring::Backend</text>
<polyline fill="none" stroke="black" points="290,-276 412,-276 "/>
<text text-anchor="middle" x="351" y="-264" font-family="Helvetica,sans-Serif" font-size="10.00"> </text>
<polyline fill="none" stroke="black" points="290,-257 412,-257 "/>
<text text-anchor="start" x="298" y="-245" font-family="Helvetica,sans-Serif" font-size="10.00">+ Backend()</text>
<text text-anchor="start" x="298" y="-234" font-family="Helvetica,sans-Serif" font-size="10.00">+ ~Backend()</text>
<text text-anchor="start" x="298" y="-223" font-family="Helvetica,sans-Serif" font-size="10.00">+ send()</text>
<text text-anchor="start" x="298" y="-212" font-family="Helvetica,sans-Serif" font-size="10.00">+ send()</text>
<text text-anchor="start" x="298" y="-201" font-family="Helvetica,sans-Serif" font-size="10.00">+ sendMultiple()</text>
<text text-anchor="start" x="298" y="-190" font-family="Helvetica,sans-Serif" font-size="10.00">+ addGlobalTag()</text>
</g>
<!-- Node2 -->
<g id="node2" class="node"><title>Node2</title>
<g id="a_node2"><a xlink:href="../../d0/d1b/classo2_1_1monitoring_1_1backends_1_1ApMonBackend.html" target="_top" xlink:title="Backend that uses AppMon (MonALISA) ">
<polygon fill="none" stroke="black" points="0,-11.5 0,-134.5 126,-134.5 126,-11.5 0,-11.5"/>
<text text-anchor="start" x="8" y="-122.5" font-family="Helvetica,sans-Serif" font-size="10.00">o2::monitoring::backends</text>
<text text-anchor="middle" x="63" y="-111.5" font-family="Helvetica,sans-Serif" font-size="10.00">::ApMonBackend</text>
<polyline fill="none" stroke="black" points="0,-104.5 126,-104.5 "/>
<text text-anchor="middle" x="63" y="-92.5" font-family="Helvetica,sans-Serif" font-size="10.00"> </text>
<polyline fill="none" stroke="black" points="0,-85.5 126,-85.5 "/>
<text text-anchor="start" x="8" y="-73.5" font-family="Helvetica,sans-Serif" font-size="10.00">+ ApMonBackend()</text>
<text text-anchor="start" x="8" y="-62.5" font-family="Helvetica,sans-Serif" font-size="10.00">+ ~ApMonBackend()</text>
<text text-anchor="start" x="8" y="-51.5" font-family="Helvetica,sans-Serif" font-size="10.00">+ send()</text>
<text text-anchor="start" x="8" y="-40.5" font-family="Helvetica,sans-Serif" font-size="10.00">+ send()</text>
<text text-anchor="start" x="8" y="-29.5" font-family="Helvetica,sans-Serif" font-size="10.00">+ sendMultiple()</text>
<text text-anchor="start" x="8" y="-18.5" font-family="Helvetica,sans-Serif" font-size="10.00">+ addGlobalTag()</text>
</a>
</g>
</g>
<!-- Node1&#45;&gt;Node2 -->
<g id="edge1" class="edge"><title>Node1&#45;&gt;Node2</title>
<path fill="none" stroke="midnightblue" d="M280.198,-215.622C236.265,-199.903 179.842,-176.287 135,-146 129.873,-142.537 124.802,-138.675 119.867,-134.588"/>
<polygon fill="none" stroke="midnightblue" points="279.062,-218.932 289.657,-218.954 281.388,-212.33 279.062,-218.932"/>
</g>
<!-- Node3 -->
<g id="node3" class="node"><title>Node3</title>
<g id="a_node3"><a xlink:href="../../d9/df5/classo2_1_1monitoring_1_1backends_1_1Flume.html" target="_top" xlink:title="Backend that sends metrics to custum Apache Flume source. ">
<polygon fill="none" stroke="black" points="144,-6 144,-140 270,-140 270,-6 144,-6"/>
<text text-anchor="start" x="152" y="-128" font-family="Helvetica,sans-Serif" font-size="10.00">o2::monitoring::backends</text>
<text text-anchor="middle" x="207" y="-117" font-family="Helvetica,sans-Serif" font-size="10.00">::Flume</text>
<polyline fill="none" stroke="black" points="144,-110 270,-110 "/>
<text text-anchor="middle" x="207" y="-98" font-family="Helvetica,sans-Serif" font-size="10.00"> </text>
<polyline fill="none" stroke="black" points="144,-91 270,-91 "/>
<text text-anchor="start" x="152" y="-79" font-family="Helvetica,sans-Serif" font-size="10.00">+ Flume()</text>
<text text-anchor="start" x="152" y="-68" font-family="Helvetica,sans-Serif" font-size="10.00">+ ~Flume()</text>
<text text-anchor="start" x="152" y="-57" font-family="Helvetica,sans-Serif" font-size="10.00">+ convertTimestamp()</text>
<text text-anchor="start" x="152" y="-46" font-family="Helvetica,sans-Serif" font-size="10.00">+ send()</text>
<text text-anchor="start" x="152" y="-35" font-family="Helvetica,sans-Serif" font-size="10.00">+ send()</text>
<text text-anchor="start" x="152" y="-24" font-family="Helvetica,sans-Serif" font-size="10.00">+ sendMultiple()</text>
<text text-anchor="start" x="152" y="-13" font-family="Helvetica,sans-Serif" font-size="10.00">+ addGlobalTag()</text>
</a>
</g>
</g>
<!-- Node1&#45;&gt;Node3 -->
<g id="edge2" class="edge"><title>Node1&#45;&gt;Node3</title>
<path fill="none" stroke="midnightblue" d="M296.043,-175.41C285.87,-163.825 275.216,-151.691 264.958,-140.007"/>
<polygon fill="none" stroke="midnightblue" points="293.421,-177.729 302.649,-182.934 298.681,-173.11 293.421,-177.729"/>
</g>
<!-- Node4 -->
<g id="node4" class="node"><title>Node4</title>
<g id="a_node4"><a xlink:href="../../dd/d09/classo2_1_1monitoring_1_1backends_1_1InfluxDB.html" target="_top" xlink:title="Backend that sends metrics to InfluxDB time&#45;series databse. ">
<polygon fill="none" stroke="black" points="288,-0.5 288,-145.5 414,-145.5 414,-0.5 288,-0.5"/>
<text text-anchor="start" x="296" y="-133.5" font-family="Helvetica,sans-Serif" font-size="10.00">o2::monitoring::backends</text>
<text text-anchor="middle" x="351" y="-122.5" font-family="Helvetica,sans-Serif" font-size="10.00">::InfluxDB</text>
<polyline fill="none" stroke="black" points="288,-115.5 414,-115.5 "/>
<text text-anchor="middle" x="351" y="-103.5" font-family="Helvetica,sans-Serif" font-size="10.00"> </text>
<polyline fill="none" stroke="black" points="288,-96.5 414,-96.5 "/>
<text text-anchor="start" x="296" y="-84.5" font-family="Helvetica,sans-Serif" font-size="10.00">+ InfluxDB()</text>
<text text-anchor="start" x="296" y="-73.5" font-family="Helvetica,sans-Serif" font-size="10.00">+ InfluxDB()</text>
<text text-anchor="start" x="296" y="-62.5" font-family="Helvetica,sans-Serif" font-size="10.00">+ ~InfluxDB()</text>
<text text-anchor="start" x="296" y="-51.5" font-family="Helvetica,sans-Serif" font-size="10.00">+ convertTimestamp()</text>
<text text-anchor="start" x="296" y="-40.5" font-family="Helvetica,sans-Serif" font-size="10.00">+ send()</text>
<text text-anchor="start" x="296" y="-29.5" font-family="Helvetica,sans-Serif" font-size="10.00">+ send()</text>
<text text-anchor="start" x="296" y="-18.5" font-family="Helvetica,sans-Serif" font-size="10.00">+ sendMultiple()</text>
<text text-anchor="start" x="296" y="-7.5" font-family="Helvetica,sans-Serif" font-size="10.00">+ addGlobalTag()</text>
</a>
</g>
</g>
<!-- Node1&#45;&gt;Node4 -->
<g id="edge3" class="edge"><title>Node1&#45;&gt;Node4</title>
<path fill="none" stroke="midnightblue" d="M351,-172.917C351,-163.917 351,-154.632 351,-145.522"/>
<polygon fill="none" stroke="midnightblue" points="347.5,-172.934 351,-182.934 354.5,-172.934 347.5,-172.934"/>
</g>
<!-- Node5 -->
<g id="node5" class="node"><title>Node5</title>
<g id="a_node5"><a xlink:href="../../d7/db9/classo2_1_1monitoring_1_1backends_1_1InfoLoggerBackend.html" target="_top" xlink:title="Backend that injects metrics to InfoLogger. ">
<polygon fill="none" stroke="black" points="432,-11.5 432,-134.5 558,-134.5 558,-11.5 432,-11.5"/>
<text text-anchor="start" x="440" y="-122.5" font-family="Helvetica,sans-Serif" font-size="10.00">o2::monitoring::backends</text>
<text text-anchor="middle" x="495" y="-111.5" font-family="Helvetica,sans-Serif" font-size="10.00">::InfoLoggerBackend</text>
<polyline fill="none" stroke="black" points="432,-104.5 558,-104.5 "/>
<text text-anchor="middle" x="495" y="-92.5" font-family="Helvetica,sans-Serif" font-size="10.00"> </text>
<polyline fill="none" stroke="black" points="432,-85.5 558,-85.5 "/>
<text text-anchor="start" x="440" y="-73.5" font-family="Helvetica,sans-Serif" font-size="10.00">+ InfoLoggerBackend()</text>
<text text-anchor="start" x="440" y="-62.5" font-family="Helvetica,sans-Serif" font-size="10.00">+ ~InfoLoggerBackend()</text>
<text text-anchor="start" x="440" y="-51.5" font-family="Helvetica,sans-Serif" font-size="10.00">+ send()</text>
<text text-anchor="start" x="440" y="-40.5" font-family="Helvetica,sans-Serif" font-size="10.00">+ send()</text>
<text text-anchor="start" x="440" y="-29.5" font-family="Helvetica,sans-Serif" font-size="10.00">+ sendMultiple()</text>
<text text-anchor="start" x="440" y="-18.5" font-family="Helvetica,sans-Serif" font-size="10.00">+ addGlobalTag()</text>
</a>
</g>
</g>
<!-- Node1&#45;&gt;Node5 -->
<g id="edge4" class="edge"><title>Node1&#45;&gt;Node5</title>
<path fill="none" stroke="midnightblue" d="M406.159,-175.18C417.864,-161.85 430.197,-147.803 441.826,-134.559"/>
<polygon fill="none" stroke="midnightblue" points="403.319,-173.11 399.351,-182.934 408.579,-177.729 403.319,-173.11"/>
</g>
<!-- Node6 -->
<g id="node6" class="node"><title>Node6</title>
<g id="a_node6"><a xlink:href="../../d7/dae/classo2_1_1monitoring_1_1backends_1_1Noop.html" target="_top" xlink:title="No&#45;op backend. ">
<polygon fill="none" stroke="black" points="576,-11.5 576,-134.5 702,-134.5 702,-11.5 576,-11.5"/>
<text text-anchor="start" x="584" y="-122.5" font-family="Helvetica,sans-Serif" font-size="10.00">o2::monitoring::backends</text>
<text text-anchor="middle" x="639" y="-111.5" font-family="Helvetica,sans-Serif" font-size="10.00">::Noop</text>
<polyline fill="none" stroke="black" points="576,-104.5 702,-104.5 "/>
<text text-anchor="middle" x="639" y="-92.5" font-family="Helvetica,sans-Serif" font-size="10.00"> </text>
<polyline fill="none" stroke="black" points="576,-85.5 702,-85.5 "/>
<text text-anchor="start" x="584" y="-73.5" font-family="Helvetica,sans-Serif" font-size="10.00">+ Noop()</text>
<text text-anchor="start" x="584" y="-62.5" font-family="Helvetica,sans-Serif" font-size="10.00">+ ~Noop()</text>
<text text-anchor="start" x="584" y="-51.5" font-family="Helvetica,sans-Serif" font-size="10.00">+ send()</text>
<text text-anchor="start" x="584" y="-40.5" font-family="Helvetica,sans-Serif" font-size="10.00">+ send()</text>
<text text-anchor="start" x="584" y="-29.5" font-family="Helvetica,sans-Serif" font-size="10.00">+ sendMultiple()</text>
<text text-anchor="start" x="584" y="-18.5" font-family="Helvetica,sans-Serif" font-size="10.00">+ addGlobalTag()</text>
</a>
</g>
</g>
<!-- Node1&#45;&gt;Node6 -->
<g id="edge5" class="edge"><title>Node1&#45;&gt;Node6</title>
<path fill="none" stroke="midnightblue" d="M421.802,-215.622C465.735,-199.903 522.158,-176.287 567,-146 572.127,-142.537 577.198,-138.675 582.133,-134.588"/>
<polygon fill="none" stroke="midnightblue" points="420.612,-212.33 412.343,-218.954 422.938,-218.932 420.612,-212.33"/>
</g>
</g>
</svg>
