<?xml version="1.0" encoding="UTF-8" standalone="no"?>
<!DOCTYPE svg PUBLIC "-//W3C//DTD SVG 1.1//EN"
 "http://www.w3.org/Graphics/SVG/1.1/DTD/svg11.dtd">
<!-- Generated by graphviz version 2.36.0 (20140111.2315)
 -->
<!-- Title: /home/travis/build/AliceO2Group/Monitoring/src/MonitoringFactory.cxx Pages: 1 -->
<!--zoomable 398 -->
<svg id="main" version="1.1" xmlns="http://www.w3.org/2000/svg" xmlns:xlink="http://www.w3.org/1999/xlink" xml:space="preserve" onload="init(evt)">
<style type="text/css"><![CDATA[
.edge:hover path { stroke: red; }
.edge:hover polygon { stroke: red; fill: red; }
]]></style>
<script type="text/javascript"><![CDATA[
var edges = document.getElementsByTagName('g');
if (edges && edges.length) {
  for (var i=0;i<edges.length;i++) {
    if (edges[i].id.substr(0,4)=='edge') {
      edges[i].setAttribute('class','edge');
    }
  }
}
]]></script>
        <defs>
                <circle id="rim" cx="0" cy="0" r="7"/>
                <circle id="rim2" cx="0" cy="0" r="3.5"/>
                <g id="zoomPlus">
                        <use xlink:href="#rim" fill="#404040">
                                <set attributeName="fill" to="#808080" begin="zoomplus.mouseover" end="zoomplus.mouseout"/>
                        </use>
                        <path d="M-4,0h8M0,-4v8" fill="none" stroke="white" stroke-width="1.5" pointer-events="none"/>
                </g>
                <g id="zoomMin">
                        <use xlink:href="#rim" fill="#404040">
                                <set attributeName="fill" to="#808080" begin="zoomminus.mouseover" end="zoomminus.mouseout"/>
                        </use>
                        <path d="M-4,0h8" fill="none" stroke="white" stroke-width="1.5" pointer-events="none"/>
                </g>
                <g id="dirArrow">
                        <path fill="none" stroke="white" stroke-width="1.5" d="M0,-3.0v7 M-2.5,-0.5L0,-3.0L2.5,-0.5"/>
                </g>
               <g id="resetDef">
                       <use xlink:href="#rim2" fill="#404040">
                               <set attributeName="fill" to="#808080" begin="reset.mouseover" end="reset.mouseout"/>
                       </use>
               </g>
        </defs>

<script type="text/javascript">
var viewWidth = 1769;
var viewHeight = 398;
var sectionId = 'dynsection-0';
</script>
<script xlink:href="../../svgpan.js"/>
<svg id="graph" class="graph">
<g id="viewport">
<title>/home/travis/build/AliceO2Group/Monitoring/src/MonitoringFactory.cxx</title>
<!-- Node1 -->
<g id="node1" class="node"><title>Node1</title>
<polygon fill="#bfbfbf" stroke="black" points="619.5,-348.5 619.5,-389.5 752.5,-389.5 752.5,-348.5 619.5,-348.5"/>
<text text-anchor="start" x="627.5" y="-377.5" font-family="Helvetica,sans-Serif" font-size="10.00">/home/travis/build</text>
<text text-anchor="start" x="627.5" y="-366.5" font-family="Helvetica,sans-Serif" font-size="10.00">/AliceO2Group/Monitoring</text>
<text text-anchor="middle" x="686" y="-355.5" font-family="Helvetica,sans-Serif" font-size="10.00">/src/MonitoringFactory.cxx</text>
</g>
<!-- Node2 -->
<g id="node2" class="node"><title>Node2</title>
<g id="a_node2"><a xlink:href="../../df/d4e/MonitoringFactory_8h.html" target="_top" xlink:title="Monitoring/MonitoringFactory.h">
<polygon fill="none" stroke="black" points="753.5,-292.5 753.5,-311.5 904.5,-311.5 904.5,-292.5 753.5,-292.5"/>
<text text-anchor="middle" x="829" y="-299.5" font-family="Helvetica,sans-Serif" font-size="10.00">Monitoring/MonitoringFactory.h</text>
</a>
</g>
</g>
<!-- Node1&#45;&gt;Node2 -->
<g id="edge1" class="edge"><title>Node1&#45;&gt;Node2</title>
<path fill="none" stroke="midnightblue" d="M728.905,-348.498C752.2,-337.909 780.343,-325.117 800.847,-315.797"/>
<polygon fill="midnightblue" stroke="midnightblue" points="802.309,-318.977 809.965,-311.652 799.413,-312.604 802.309,-318.977"/>
</g>
<!-- Node19 -->
<g id="node19" class="node"><title>Node19</title>
<polygon fill="none" stroke="#bfbfbf" points="715.5,-112.5 715.5,-131.5 844.5,-131.5 844.5,-112.5 715.5,-112.5"/>
<text text-anchor="middle" x="780" y="-119.5" font-family="Helvetica,sans-Serif" font-size="10.00">boost/algorithm/string.hpp</text>
</g>
<!-- Node1&#45;&gt;Node19 -->
<g id="edge40" class="edge"><title>Node1&#45;&gt;Node19</title>
<path fill="none" stroke="midnightblue" d="M693.534,-348.365C711.323,-301.999 755.734,-186.247 772.989,-141.274"/>
<polygon fill="midnightblue" stroke="midnightblue" points="776.359,-142.261 776.673,-131.671 769.823,-139.754 776.359,-142.261"/>
</g>
<!-- Node23 -->
<g id="node23" class="node"><title>Node23</title>
<polygon fill="none" stroke="#bfbfbf" points="922.5,-292.5 922.5,-311.5 981.5,-311.5 981.5,-292.5 922.5,-292.5"/>
<text text-anchor="middle" x="952" y="-299.5" font-family="Helvetica,sans-Serif" font-size="10.00">functional</text>
</g>
<!-- Node1&#45;&gt;Node23 -->
<g id="edge38" class="edge"><title>Node1&#45;&gt;Node23</title>
<path fill="none" stroke="midnightblue" d="M752.78,-351.682C803.109,-339.383 870.423,-322.934 912.491,-312.655"/>
<polygon fill="midnightblue" stroke="midnightblue" points="913.475,-316.017 922.358,-310.243 911.813,-309.217 913.475,-316.017"/>
</g>
<!-- Node24 -->
<g id="node24" class="node"><title>Node24</title>
<polygon fill="none" stroke="#bfbfbf" points="999.5,-292.5 999.5,-311.5 1058.5,-311.5 1058.5,-292.5 999.5,-292.5"/>
<text text-anchor="middle" x="1029" y="-299.5" font-family="Helvetica,sans-Serif" font-size="10.00">stdexcept</text>
</g>
<!-- Node1&#45;&gt;Node24 -->
<g id="edge39" class="edge"><title>Node1&#45;&gt;Node24</title>
<path fill="none" stroke="midnightblue" d="M752.586,-356.616C812.058,-346.246 901.782,-330.109 989.379,-312.055"/>
<polygon fill="midnightblue" stroke="midnightblue" points="990.137,-315.472 999.22,-310.016 988.717,-308.618 990.137,-315.472"/>
</g>
<!-- Node25 -->
<g id="node25" class="node"><title>Node25</title>
<g id="a_node25"><a xlink:href="../../df/de7/MonLogger_8h.html" target="_top" xlink:title="MonLogger.h">
<polygon fill="none" stroke="black" points="288.5,-174.5 288.5,-193.5 361.5,-193.5 361.5,-174.5 288.5,-174.5"/>
<text text-anchor="middle" x="325" y="-181.5" font-family="Helvetica,sans-Serif" font-size="10.00">MonLogger.h</text>
</a>
</g>
</g>
<!-- Node1&#45;&gt;Node25 -->
<g id="edge41" class="edge"><title>Node1&#45;&gt;Node25</title>
<path fill="none" stroke="midnightblue" d="M619.27,-355.363C553.211,-340.316 451.695,-310.129 379,-256 359.662,-241.601 343.873,-218.456 334.468,-202.528"/>
<polygon fill="midnightblue" stroke="midnightblue" points="337.435,-200.665 329.463,-193.687 331.344,-204.113 337.435,-200.665"/>
</g>
<!-- Node27 -->
<g id="node27" class="node"><title>Node27</title>
<g id="a_node27"><a xlink:href="../../d7/d79/UriParser_8h.html" target="_top" xlink:title="UriParser/UriParser.h">
<polygon fill="none" stroke="black" points="548,-174.5 548,-193.5 658,-193.5 658,-174.5 548,-174.5"/>
<text text-anchor="middle" x="603" y="-181.5" font-family="Helvetica,sans-Serif" font-size="10.00">UriParser/UriParser.h</text>
</a>
</g>
</g>
<!-- Node1&#45;&gt;Node27 -->
<g id="edge45" class="edge"><title>Node1&#45;&gt;Node27</title>
<path fill="none" stroke="midnightblue" d="M687.289,-348.217C688.149,-321.071 686.396,-271.596 666,-236 657.132,-220.524 641.602,-207.871 628.18,-199.039"/>
<polygon fill="midnightblue" stroke="midnightblue" points="629.675,-195.847 619.333,-193.547 625.983,-201.795 629.675,-195.847"/>
</g>
<!-- Node29 -->
<g id="node29" class="node"><title>Node29</title>
<g id="a_node29"><a xlink:href="../../d9/de4/InfoLoggerBackend_8h.html" target="_top" xlink:title="Backends/InfoLoggerBackend.h">
<polygon fill="none" stroke="black" points="502.5,-236.5 502.5,-255.5 657.5,-255.5 657.5,-236.5 502.5,-236.5"/>
<text text-anchor="middle" x="580" y="-243.5" font-family="Helvetica,sans-Serif" font-size="10.00">Backends/InfoLoggerBackend.h</text>
</a>
</g>
</g>
<!-- Node1&#45;&gt;Node29 -->
<g id="edge49" class="edge"><title>Node1&#45;&gt;Node29</title>
<path fill="none" stroke="midnightblue" d="M668.733,-348.29C648.017,-324.642 613.668,-285.432 594.345,-263.375"/>
<polygon fill="midnightblue" stroke="midnightblue" points="596.734,-260.79 587.512,-255.575 591.469,-265.403 596.734,-260.79"/>
</g>
<!-- Node30 -->
<g id="node30" class="node"><title>Node30</title>
<g id="a_node30"><a xlink:href="../../d4/d57/Flume_8h.html" target="_top" xlink:title="Backends/Flume.h">
<polygon fill="none" stroke="black" points="204,-236.5 204,-255.5 302,-255.5 302,-236.5 204,-236.5"/>
<text text-anchor="middle" x="253" y="-243.5" font-family="Helvetica,sans-Serif" font-size="10.00">Backends/Flume.h</text>
</a>
</g>
</g>
<!-- Node1&#45;&gt;Node30 -->
<g id="edge52" class="edge"><title>Node1&#45;&gt;Node30</title>
<path fill="none" stroke="midnightblue" d="M619.295,-368.085C545.377,-365.828 424.182,-355.03 330,-312 305.028,-300.591 281.736,-278.742 267.449,-263.541"/>
<polygon fill="midnightblue" stroke="midnightblue" points="269.804,-260.929 260.484,-255.889 264.627,-265.641 269.804,-260.929"/>
</g>
<!-- Node33 -->
<g id="node33" class="node"><title>Node33</title>
<g id="a_node33"><a xlink:href="../../dd/d5f/Noop_8h.html" target="_top" xlink:title="Backends/Noop.h">
<polygon fill="none" stroke="black" points="388.5,-236.5 388.5,-255.5 483.5,-255.5 483.5,-236.5 388.5,-236.5"/>
<text text-anchor="middle" x="436" y="-243.5" font-family="Helvetica,sans-Serif" font-size="10.00">Backends/Noop.h</text>
</a>
</g>
</g>
<!-- Node1&#45;&gt;Node33 -->
<g id="edge60" class="edge"><title>Node1&#45;&gt;Node33</title>
<path fill="none" stroke="midnightblue" d="M645.555,-348.425C594.164,-323.552 506.877,-281.305 462.949,-260.043"/>
<polygon fill="midnightblue" stroke="midnightblue" points="464.286,-256.802 453.76,-255.596 461.237,-263.103 464.286,-256.802"/>
</g>
<!-- Node3 -->
<g id="node3" class="node"><title>Node3</title>
<g id="a_node3"><a xlink:href="../../d0/d98/Monitoring_8h.html" target="_top" xlink:title="Monitoring/Monitoring.h">
<polygon fill="none" stroke="black" points="1268,-236.5 1268,-255.5 1386,-255.5 1386,-236.5 1268,-236.5"/>
<text text-anchor="middle" x="1327" y="-243.5" font-family="Helvetica,sans-Serif" font-size="10.00">Monitoring/Monitoring.h</text>
</a>
</g>
</g>
<!-- Node2&#45;&gt;Node3 -->
<g id="edge2" class="edge"><title>Node2&#45;&gt;Node3</title>
<path fill="none" stroke="midnightblue" d="M904.635,-292.799C1000.62,-282.39 1164.85,-264.582 1257.71,-254.513"/>
<polygon fill="midnightblue" stroke="midnightblue" points="1258.28,-257.972 1267.85,-253.414 1257.53,-251.013 1258.28,-257.972"/>
</g>
<!-- Node4 -->
<g id="node4" class="node"><title>Node4</title>
<polygon fill="none" stroke="#bfbfbf" points="1319,-112.5 1319,-131.5 1365,-131.5 1365,-112.5 1319,-112.5"/>
<text text-anchor="middle" x="1342" y="-119.5" font-family="Helvetica,sans-Serif" font-size="10.00">atomic</text>
</g>
<!-- Node3&#45;&gt;Node4 -->
<g id="edge3" class="edge"><title>Node3&#45;&gt;Node4</title>
<path fill="none" stroke="midnightblue" d="M1328.08,-236.226C1330.5,-216.53 1336.41,-168.437 1339.7,-141.7"/>
<polygon fill="midnightblue" stroke="midnightblue" points="1343.18,-142.047 1340.93,-131.694 1336.24,-141.193 1343.18,-142.047"/>
</g>
<!-- Node5 -->
<g id="node5" class="node"><title>Node5</title>
<polygon fill="none" stroke="#bfbfbf" points="425,-56.5 425,-75.5 471,-75.5 471,-56.5 425,-56.5"/>
<text text-anchor="middle" x="448" y="-63.5" font-family="Helvetica,sans-Serif" font-size="10.00">chrono</text>
</g>
<!-- Node3&#45;&gt;Node5 -->
<g id="edge4" class="edge"><title>Node3&#45;&gt;Node5</title>
<path fill="none" stroke="midnightblue" d="M1267.75,-244.592C1095.31,-242.991 601.955,-235.341 539,-200 493.371,-174.385 465.842,-115.208 454.32,-85.1811"/>
<polygon fill="midnightblue" stroke="midnightblue" points="457.52,-83.7411 450.796,-75.5537 450.947,-86.1474 457.52,-83.7411"/>
</g>
<!-- Node6 -->
<g id="node6" class="node"><title>Node6</title>
<polygon fill="none" stroke="#bfbfbf" points="1669.5,-174.5 1669.5,-193.5 1704.5,-193.5 1704.5,-174.5 1669.5,-174.5"/>
<text text-anchor="middle" x="1687" y="-181.5" font-family="Helvetica,sans-Serif" font-size="10.00">map</text>
</g>
<!-- Node3&#45;&gt;Node6 -->
<g id="edge5" class="edge"><title>Node3&#45;&gt;Node6</title>
<path fill="none" stroke="midnightblue" d="M1386.19,-242.251C1452.75,-237.934 1563.5,-227.04 1655,-200 1657.28,-199.325 1659.61,-198.51 1661.91,-197.613"/>
<polygon fill="midnightblue" stroke="midnightblue" points="1663.33,-200.816 1671.09,-193.611 1660.53,-194.4 1663.33,-200.816"/>
</g>
<!-- Node7 -->
<g id="node7" class="node"><title>Node7</title>
<polygon fill="none" stroke="#bfbfbf" points="1383,-112.5 1383,-131.5 1435,-131.5 1435,-112.5 1383,-112.5"/>
<text text-anchor="middle" x="1409" y="-119.5" font-family="Helvetica,sans-Serif" font-size="10.00">memory</text>
</g>
<!-- Node3&#45;&gt;Node7 -->
<g id="edge6" class="edge"><title>Node3&#45;&gt;Node7</title>
<path fill="none" stroke="midnightblue" d="M1332.9,-236.226C1346.37,-216.178 1379.62,-166.71 1397.38,-140.289"/>
<polygon fill="midnightblue" stroke="midnightblue" points="1400.48,-141.946 1403.16,-131.694 1394.67,-138.042 1400.48,-141.946"/>
</g>
<!-- Node8 -->
<g id="node8" class="node"><title>Node8</title>
<polygon fill="none" stroke="#bfbfbf" points="759.5,-0.5 759.5,-19.5 800.5,-19.5 800.5,-0.5 759.5,-0.5"/>
<text text-anchor="middle" x="780" y="-7.5" font-family="Helvetica,sans-Serif" font-size="10.00">string</text>
</g>
<!-- Node3&#45;&gt;Node8 -->
<g id="edge7" class="edge"><title>Node3&#45;&gt;Node8</title>
<path fill="none" stroke="midnightblue" d="M1267.97,-241.384C1209,-236.473 1116.39,-225.208 1040,-200 978.079,-179.567 963.229,-169.66 910,-132 864.094,-99.521 817.615,-51.9054 794.679,-27.2058"/>
<polygon fill="midnightblue" stroke="midnightblue" points="797.183,-24.7572 787.839,-19.763 792.029,-29.4941 797.183,-24.7572"/>
</g>
<!-- Node9 -->
<g id="node9" class="node"><title>Node9</title>
<polygon fill="none" stroke="#bfbfbf" points="1257,-112.5 1257,-131.5 1301,-131.5 1301,-112.5 1257,-112.5"/>
<text text-anchor="middle" x="1279" y="-119.5" font-family="Helvetica,sans-Serif" font-size="10.00">thread</text>
</g>
<!-- Node3&#45;&gt;Node9 -->
<g id="edge8" class="edge"><title>Node3&#45;&gt;Node9</title>
<path fill="none" stroke="midnightblue" d="M1323.55,-236.226C1315.76,-216.442 1296.71,-168.007 1286.22,-141.344"/>
<polygon fill="midnightblue" stroke="midnightblue" points="1289.34,-139.719 1282.42,-131.694 1282.83,-142.282 1289.34,-139.719"/>
</g>
<!-- Node10 -->
<g id="node10" class="node"><title>Node10</title>
<polygon fill="none" stroke="#bfbfbf" points="1723,-174.5 1723,-193.5 1761,-193.5 1761,-174.5 1723,-174.5"/>
<text text-anchor="middle" x="1742" y="-181.5" font-family="Helvetica,sans-Serif" font-size="10.00">tuple</text>
</g>
<!-- Node3&#45;&gt;Node10 -->
<g id="edge9" class="edge"><title>Node3&#45;&gt;Node10</title>
<path fill="none" stroke="midnightblue" d="M1386.22,-244.663C1463.15,-242.752 1600.9,-234.273 1713,-200 1714.91,-199.416 1716.85,-198.708 1718.76,-197.922"/>
<polygon fill="midnightblue" stroke="midnightblue" points="1720.45,-200.996 1727.98,-193.547 1717.45,-194.672 1720.45,-200.996"/>
</g>
<!-- Node11 -->
<g id="node11" class="node"><title>Node11</title>
<polygon fill="none" stroke="#bfbfbf" points="1529.5,-112.5 1529.5,-131.5 1612.5,-131.5 1612.5,-112.5 1529.5,-112.5"/>
<text text-anchor="middle" x="1571" y="-119.5" font-family="Helvetica,sans-Serif" font-size="10.00">unordered_map</text>
</g>
<!-- Node3&#45;&gt;Node11 -->
<g id="edge10" class="edge"><title>Node3&#45;&gt;Node11</title>
<path fill="none" stroke="midnightblue" d="M1386.23,-238.889C1441.24,-232.111 1518.02,-219.489 1541,-200 1558.32,-185.317 1565.69,-159.363 1568.79,-141.684"/>
<polygon fill="midnightblue" stroke="midnightblue" points="1572.27,-142.092 1570.25,-131.691 1565.34,-141.08 1572.27,-142.092"/>
</g>
<!-- Node12 -->
<g id="node12" class="node"><title>Node12</title>
<polygon fill="none" stroke="#bfbfbf" points="1318,-56.5 1318,-75.5 1362,-75.5 1362,-56.5 1318,-56.5"/>
<text text-anchor="middle" x="1340" y="-63.5" font-family="Helvetica,sans-Serif" font-size="10.00">vector</text>
</g>
<!-- Node3&#45;&gt;Node12 -->
<g id="edge11" class="edge"><title>Node3&#45;&gt;Node12</title>
<path fill="none" stroke="midnightblue" d="M1386.02,-239.566C1490.52,-227.738 1690.79,-193.85 1621,-112 1589.36,-74.8854 1439.38,-68.2528 1372.42,-67.1605"/>
<polygon fill="midnightblue" stroke="midnightblue" points="1372.46,-63.6609 1362.42,-67.029 1372.37,-70.6603 1372.46,-63.6609"/>
</g>
<!-- Node13 -->
<g id="node13" class="node"><title>Node13</title>
<g id="a_node13"><a xlink:href="../../df/d83/Backend_8h.html" target="_top" xlink:title="Monitoring/Backend.h">
<polygon fill="none" stroke="black" points="379.5,-174.5 379.5,-193.5 490.5,-193.5 490.5,-174.5 379.5,-174.5"/>
<text text-anchor="middle" x="435" y="-181.5" font-family="Helvetica,sans-Serif" font-size="10.00">Monitoring/Backend.h</text>
</a>
</g>
</g>
<!-- Node3&#45;&gt;Node13 -->
<g id="edge12" class="edge"><title>Node3&#45;&gt;Node13</title>
<path fill="none" stroke="midnightblue" d="M1267.9,-244.926C1132.38,-244.067 789.032,-237.969 505,-200 496.767,-198.899 488.063,-197.351 479.694,-195.664"/>
<polygon fill="midnightblue" stroke="midnightblue" points="480.213,-192.197 469.706,-193.558 478.768,-199.046 480.213,-192.197"/>
</g>
<!-- Node17 -->
<g id="node17" class="node"><title>Node17</title>
<g id="a_node17"><a xlink:href="../../dc/de0/DerivedMetrics_8h.html" target="_top" xlink:title="Monitoring/DerivedMetrics.h">
<polygon fill="none" stroke="black" points="1393.5,-174.5 1393.5,-193.5 1532.5,-193.5 1532.5,-174.5 1393.5,-174.5"/>
<text text-anchor="middle" x="1463" y="-181.5" font-family="Helvetica,sans-Serif" font-size="10.00">Monitoring/DerivedMetrics.h</text>
</a>
</g>
</g>
<!-- Node3&#45;&gt;Node17 -->
<g id="edge22" class="edge"><title>Node3&#45;&gt;Node17</title>
<path fill="none" stroke="midnightblue" d="M1346.49,-236.403C1369.41,-226.29 1407.69,-209.404 1434.08,-197.761"/>
<polygon fill="midnightblue" stroke="midnightblue" points="1435.81,-200.819 1443.55,-193.581 1432.99,-194.415 1435.81,-200.819"/>
</g>
<!-- Node18 -->
<g id="node18" class="node"><title>Node18</title>
<g id="a_node18"><a xlink:href="../../df/d93/ProcessMonitor_8h.html" target="_top" xlink:title="Monitoring/ProcessMonitor.h">
<polygon fill="none" stroke="black" points="1049.5,-174.5 1049.5,-193.5 1190.5,-193.5 1190.5,-174.5 1049.5,-174.5"/>
<text text-anchor="middle" x="1120" y="-181.5" font-family="Helvetica,sans-Serif" font-size="10.00">Monitoring/ProcessMonitor.h</text>
</a>
</g>
</g>
<!-- Node3&#45;&gt;Node18 -->
<g id="edge28" class="edge"><title>Node3&#45;&gt;Node18</title>
<path fill="none" stroke="midnightblue" d="M1297.34,-236.403C1261.07,-225.889 1199.54,-208.054 1159.34,-196.402"/>
<polygon fill="midnightblue" stroke="midnightblue" points="1160.18,-193.003 1149.6,-193.581 1158.23,-199.726 1160.18,-193.003"/>
</g>
<!-- Node13&#45;&gt;Node5 -->
<g id="edge13" class="edge"><title>Node13&#45;&gt;Node5</title>
<path fill="none" stroke="midnightblue" d="M435.977,-174.281C438.077,-155.547 443.058,-111.098 445.906,-85.6822"/>
<polygon fill="midnightblue" stroke="midnightblue" points="449.411,-85.8324 447.047,-75.5048 442.455,-85.0527 449.411,-85.8324"/>
</g>
<!-- Node13&#45;&gt;Node8 -->
<g id="edge14" class="edge"><title>Node13&#45;&gt;Node8</title>
<path fill="none" stroke="midnightblue" d="M429.628,-174.296C416.421,-151.676 385.583,-90.4089 416,-56 437.969,-31.1483 665.32,-16.9399 749.165,-12.5129"/>
<polygon fill="midnightblue" stroke="midnightblue" points="749.528,-15.9989 759.334,-11.9871 749.167,-9.00824 749.528,-15.9989"/>
</g>
<!-- Node14 -->
<g id="node14" class="node"><title>Node14</title>
<g id="a_node14"><a xlink:href="../../d9/d92/Metric_8h.html" target="_top" xlink:title="Monitoring/Metric.h">
<polygon fill="none" stroke="black" points="939,-112.5 939,-131.5 1039,-131.5 1039,-112.5 939,-112.5"/>
<text text-anchor="middle" x="989" y="-119.5" font-family="Helvetica,sans-Serif" font-size="10.00">Monitoring/Metric.h</text>
</a>
</g>
</g>
<!-- Node13&#45;&gt;Node14 -->
<g id="edge15" class="edge"><title>Node13&#45;&gt;Node14</title>
<path fill="none" stroke="midnightblue" d="M490.533,-174.534C506.188,-172.271 523.246,-169.923 539,-168 678.299,-150.998 842.442,-135.801 928.835,-128.177"/>
<polygon fill="midnightblue" stroke="midnightblue" points="929.324,-131.647 938.979,-127.285 928.71,-124.674 929.324,-131.647"/>
</g>
<!-- Node14&#45;&gt;Node5 -->
<g id="edge17" class="edge"><title>Node14&#45;&gt;Node5</title>
<path fill="none" stroke="midnightblue" d="M938.59,-115.968C829.209,-105.05 572.586,-79.4356 481.111,-70.305"/>
<polygon fill="midnightblue" stroke="midnightblue" points="481.34,-66.8105 471.042,-69.2999 480.645,-73.7759 481.34,-66.8105"/>
</g>
<!-- Node14&#45;&gt;Node8 -->
<g id="edge16" class="edge"><title>Node14&#45;&gt;Node8</title>
<path fill="none" stroke="midnightblue" d="M982.566,-112.064C972.062,-98.105 949.887,-71.1572 925,-56 888.954,-34.0469 841.273,-21.9512 810.614,-15.9702"/>
<polygon fill="midnightblue" stroke="midnightblue" points="810.996,-12.4816 800.526,-14.1036 809.722,-19.3648 810.996,-12.4816"/>
</g>
<!-- Node14&#45;&gt;Node12 -->
<g id="edge18" class="edge"><title>Node14&#45;&gt;Node12</title>
<path fill="none" stroke="midnightblue" d="M1039.29,-113.263C1112.43,-102.011 1246.1,-81.4455 1307.54,-71.9933"/>
<polygon fill="midnightblue" stroke="midnightblue" points="1308.45,-75.3953 1317.8,-70.4154 1307.38,-68.4767 1308.45,-75.3953"/>
</g>
<!-- Node15 -->
<g id="node15" class="node"><title>Node15</title>
<polygon fill="none" stroke="#bfbfbf" points="1037,-56.5 1037,-75.5 1129,-75.5 1129,-56.5 1037,-56.5"/>
<text text-anchor="middle" x="1083" y="-63.5" font-family="Helvetica,sans-Serif" font-size="10.00">boost/variant.hpp</text>
</g>
<!-- Node14&#45;&gt;Node15 -->
<g id="edge19" class="edge"><title>Node14&#45;&gt;Node15</title>
<path fill="none" stroke="midnightblue" d="M1004.1,-112.324C1018.9,-103.822 1041.69,-90.7288 1058.98,-80.7975"/>
<polygon fill="midnightblue" stroke="midnightblue" points="1061.01,-83.6707 1067.93,-75.6545 1057.52,-77.6009 1061.01,-83.6707"/>
</g>
<!-- Node16 -->
<g id="node16" class="node"><title>Node16</title>
<g id="a_node16"><a xlink:href="../../d9/d33/Tag_8h.html" target="_top" xlink:title="Tag.h">
<polygon fill="none" stroke="black" points="977.5,-56.5 977.5,-75.5 1018.5,-75.5 1018.5,-56.5 977.5,-56.5"/>
<text text-anchor="middle" x="998" y="-63.5" font-family="Helvetica,sans-Serif" font-size="10.00">Tag.h</text>
</a>
</g>
</g>
<!-- Node14&#45;&gt;Node16 -->
<g id="edge20" class="edge"><title>Node14&#45;&gt;Node16</title>
<path fill="none" stroke="midnightblue" d="M990.486,-112.083C991.679,-104.927 993.394,-94.6353 994.885,-85.6911"/>
<polygon fill="midnightblue" stroke="midnightblue" points="998.35,-86.1904 996.541,-75.7511 991.445,-85.0396 998.35,-86.1904"/>
</g>
<!-- Node16&#45;&gt;Node8 -->
<g id="edge21" class="edge"><title>Node16&#45;&gt;Node8</title>
<path fill="none" stroke="midnightblue" d="M977.281,-59.6337C972.588,-58.4288 967.624,-57.1631 963,-56 909.431,-42.5265 846.924,-27.252 810.569,-18.4123"/>
<polygon fill="midnightblue" stroke="midnightblue" points="811.144,-14.9504 800.601,-15.9906 809.492,-21.7526 811.144,-14.9504"/>
</g>
<!-- Node17&#45;&gt;Node7 -->
<g id="edge24" class="edge"><title>Node17&#45;&gt;Node7</title>
<path fill="none" stroke="midnightblue" d="M1455.26,-174.403C1447,-165.225 1433.72,-150.47 1423.51,-139.117"/>
<polygon fill="midnightblue" stroke="midnightblue" points="1426.01,-136.672 1416.72,-131.581 1420.81,-141.355 1426.01,-136.672"/>
</g>
<!-- Node17&#45;&gt;Node8 -->
<g id="edge25" class="edge"><title>Node17&#45;&gt;Node8</title>
<path fill="none" stroke="midnightblue" d="M1465.72,-174.449C1469.67,-160.383 1475.33,-131.935 1464,-112 1439.97,-69.7201 1416.36,-70.6822 1370,-56 1264.18,-22.4874 916.589,-13.4876 810.814,-11.4964"/>
<polygon fill="midnightblue" stroke="midnightblue" points="810.576,-7.99159 800.515,-11.3105 810.45,-14.9905 810.576,-7.99159"/>
</g>
<!-- Node17&#45;&gt;Node11 -->
<g id="edge23" class="edge"><title>Node17&#45;&gt;Node11</title>
<path fill="none" stroke="midnightblue" d="M1478.47,-174.403C1496.28,-164.512 1525.74,-148.144 1546.63,-136.538"/>
<polygon fill="midnightblue" stroke="midnightblue" points="1548.51,-139.497 1555.55,-131.581 1545.11,-133.378 1548.51,-139.497"/>
</g>
<!-- Node17&#45;&gt;Node12 -->
<g id="edge26" class="edge"><title>Node17&#45;&gt;Node12</title>
<path fill="none" stroke="midnightblue" d="M1463.01,-174.477C1462.57,-159.939 1459.67,-130.162 1444,-112 1425.53,-90.5922 1395.01,-79.0381 1371.8,-73.0212"/>
<polygon fill="midnightblue" stroke="midnightblue" points="1372.58,-69.6084 1362.04,-70.6998 1370.96,-76.4185 1372.58,-69.6084"/>
</g>
<!-- Node17&#45;&gt;Node14 -->
<g id="edge27" class="edge"><title>Node17&#45;&gt;Node14</title>
<path fill="none" stroke="midnightblue" d="M1393.16,-175.046C1312.72,-165.742 1176.32,-149.533 1049.12,-132.122"/>
<polygon fill="midnightblue" stroke="midnightblue" points="1049.58,-128.653 1039.2,-130.759 1048.63,-135.588 1049.58,-128.653"/>
</g>
<!-- Node18&#45;&gt;Node4 -->
<g id="edge29" class="edge"><title>Node18&#45;&gt;Node4</title>
<path fill="none" stroke="midnightblue" d="M1151.78,-174.454C1189.34,-164.344 1253.73,-146.994 1309,-132 1309.1,-131.973 1309.2,-131.946 1309.3,-131.918"/>
<polygon fill="midnightblue" stroke="midnightblue" points="1310.19,-135.303 1318.92,-129.302 1308.36,-128.548 1310.19,-135.303"/>
</g>
<!-- Node18&#45;&gt;Node8 -->
<g id="edge33" class="edge"><title>Node18&#45;&gt;Node8</title>
<path fill="none" stroke="midnightblue" d="M1049.09,-177.29C1010.58,-171.12 964.021,-158.353 930,-132 899.319,-108.234 915.997,-81.7942 887,-56 865.096,-36.5154 833.534,-24.6441 810.364,-18.0254"/>
<polygon fill="midnightblue" stroke="midnightblue" points="811.254,-14.6403 800.688,-15.4245 809.437,-21.4004 811.254,-14.6403"/>
</g>
<!-- Node18&#45;&gt;Node9 -->
<g id="edge34" class="edge"><title>Node18&#45;&gt;Node9</title>
<path fill="none" stroke="midnightblue" d="M1142.78,-174.403C1170.21,-164.053 1216.43,-146.609 1247.33,-134.952"/>
<polygon fill="midnightblue" stroke="midnightblue" points="1248.65,-138.192 1256.77,-131.387 1246.18,-131.643 1248.65,-138.192"/>
</g>
<!-- Node18&#45;&gt;Node12 -->
<g id="edge35" class="edge"><title>Node18&#45;&gt;Node12</title>
<path fill="none" stroke="midnightblue" d="M1134.84,-174.441C1158.55,-160.84 1206.54,-133.62 1248,-112 1269.52,-100.78 1294.24,-88.7342 1312.63,-79.9315"/>
<polygon fill="midnightblue" stroke="midnightblue" points="1314.36,-82.9852 1321.88,-75.5233 1311.35,-76.6661 1314.36,-82.9852"/>
</g>
<!-- Node18&#45;&gt;Node14 -->
<g id="edge37" class="edge"><title>Node18&#45;&gt;Node14</title>
<path fill="none" stroke="midnightblue" d="M1101.23,-174.403C1079.15,-164.29 1042.28,-147.404 1016.86,-135.761"/>
<polygon fill="midnightblue" stroke="midnightblue" points="1018.28,-132.563 1007.73,-131.581 1015.37,-138.927 1018.28,-132.563"/>
</g>
<!-- Node18&#45;&gt;Node19 -->
<g id="edge30" class="edge"><title>Node18&#45;&gt;Node19</title>
<path fill="none" stroke="midnightblue" d="M1071.65,-174.467C1010.22,-163.626 904.28,-144.932 838.402,-133.306"/>
<polygon fill="midnightblue" stroke="midnightblue" points="838.642,-129.795 828.186,-131.503 837.425,-136.688 838.642,-129.795"/>
</g>
<!-- Node20 -->
<g id="node20" class="node"><title>Node20</title>
<polygon fill="none" stroke="#bfbfbf" points="1057,-112.5 1057,-131.5 1101,-131.5 1101,-112.5 1057,-112.5"/>
<text text-anchor="middle" x="1079" y="-119.5" font-family="Helvetica,sans-Serif" font-size="10.00">mutex</text>
</g>
<!-- Node18&#45;&gt;Node20 -->
<g id="edge31" class="edge"><title>Node18&#45;&gt;Node20</title>
<path fill="none" stroke="midnightblue" d="M1114.13,-174.403C1108.04,-165.493 1098.36,-151.325 1090.7,-140.118"/>
<polygon fill="midnightblue" stroke="midnightblue" points="1093.4,-137.862 1084.86,-131.581 1087.62,-141.812 1093.4,-137.862"/>
</g>
<!-- Node21 -->
<g id="node21" class="node"><title>Node21</title>
<polygon fill="none" stroke="#bfbfbf" points="567,-112.5 567,-131.5 621,-131.5 621,-112.5 567,-112.5"/>
<text text-anchor="middle" x="594" y="-119.5" font-family="Helvetica,sans-Serif" font-size="10.00">iostream</text>
</g>
<!-- Node18&#45;&gt;Node21 -->
<g id="edge32" class="edge"><title>Node18&#45;&gt;Node21</title>
<path fill="none" stroke="midnightblue" d="M1049.33,-174.939C936.235,-162.038 718.444,-137.195 631.341,-127.259"/>
<polygon fill="midnightblue" stroke="midnightblue" points="631.473,-123.752 621.141,-126.096 630.68,-130.707 631.473,-123.752"/>
</g>
<!-- Node22 -->
<g id="node22" class="node"><title>Node22</title>
<polygon fill="none" stroke="#bfbfbf" points="1119.5,-112.5 1119.5,-131.5 1200.5,-131.5 1200.5,-112.5 1119.5,-112.5"/>
<text text-anchor="middle" x="1160" y="-119.5" font-family="Helvetica,sans-Serif" font-size="10.00">sys/resource.h</text>
</g>
<!-- Node18&#45;&gt;Node22 -->
<g id="edge36" class="edge"><title>Node18&#45;&gt;Node22</title>
<path fill="none" stroke="midnightblue" d="M1125.73,-174.403C1131.67,-165.493 1141.12,-151.325 1148.59,-140.118"/>
<polygon fill="midnightblue" stroke="midnightblue" points="1151.64,-141.843 1154.28,-131.581 1145.82,-137.96 1151.64,-141.843"/>
</g>
<!-- Node25&#45;&gt;Node5 -->
<g id="edge42" class="edge"><title>Node25&#45;&gt;Node5</title>
<path fill="none" stroke="midnightblue" d="M334.245,-174.281C355.004,-154.704 405.542,-107.041 431.705,-82.3676"/>
<polygon fill="midnightblue" stroke="midnightblue" points="434.108,-84.9121 438.982,-75.5048 429.306,-79.8196 434.108,-84.9121"/>
</g>
<!-- Node25&#45;&gt;Node21 -->
<g id="edge44" class="edge"><title>Node25&#45;&gt;Node21</title>
<path fill="none" stroke="midnightblue" d="M348.645,-174.465C355.48,-172.176 362.988,-169.831 370,-168 449.258,-147.299 473.163,-150.075 556.951,-132.115"/>
<polygon fill="midnightblue" stroke="midnightblue" points="557.886,-135.494 566.911,-129.944 556.395,-128.654 557.886,-135.494"/>
</g>
<!-- Node26 -->
<g id="node26" class="node"><title>Node26</title>
<polygon fill="none" stroke="#bfbfbf" points="281,-112.5 281,-131.5 331,-131.5 331,-112.5 281,-112.5"/>
<text text-anchor="middle" x="306" y="-119.5" font-family="Helvetica,sans-Serif" font-size="10.00">iomanip</text>
</g>
<!-- Node25&#45;&gt;Node26 -->
<g id="edge43" class="edge"><title>Node25&#45;&gt;Node26</title>
<path fill="none" stroke="midnightblue" d="M322.278,-174.403C319.541,-165.76 315.237,-152.17 311.742,-141.134"/>
<polygon fill="midnightblue" stroke="midnightblue" points="315.073,-140.057 308.717,-131.581 308.399,-142.171 315.073,-140.057"/>
</g>
<!-- Node27&#45;&gt;Node8 -->
<g id="edge47" class="edge"><title>Node27&#45;&gt;Node8</title>
<path fill="none" stroke="midnightblue" d="M607.63,-174.23C622.442,-146.224 667.993,-60.504 673,-56 694.795,-36.3937 726.372,-24.5391 749.575,-17.9574"/>
<polygon fill="midnightblue" stroke="midnightblue" points="750.506,-21.3315 759.267,-15.3739 748.703,-14.5677 750.506,-21.3315"/>
</g>
<!-- Node27&#45;&gt;Node21 -->
<g id="edge46" class="edge"><title>Node27&#45;&gt;Node21</title>
<path fill="none" stroke="midnightblue" d="M601.711,-174.403C600.427,-165.849 598.417,-152.45 596.771,-141.476"/>
<polygon fill="midnightblue" stroke="midnightblue" points="600.232,-140.951 595.287,-131.581 593.309,-141.989 600.232,-140.951"/>
</g>
<!-- Node28 -->
<g id="node28" class="node"><title>Node28</title>
<polygon fill="none" stroke="#bfbfbf" points="501,-112.5 501,-131.5 549,-131.5 549,-112.5 501,-112.5"/>
<text text-anchor="middle" x="525" y="-119.5" font-family="Helvetica,sans-Serif" font-size="10.00">stdlib.h</text>
</g>
<!-- Node27&#45;&gt;Node28 -->
<g id="edge48" class="edge"><title>Node27&#45;&gt;Node28</title>
<path fill="none" stroke="midnightblue" d="M591.825,-174.403C579.429,-164.869 559.21,-149.315 544.254,-137.811"/>
<polygon fill="midnightblue" stroke="midnightblue" points="546.215,-134.904 536.155,-131.581 541.947,-140.452 546.215,-134.904"/>
</g>
<!-- Node29&#45;&gt;Node8 -->
<g id="edge51" class="edge"><title>Node29&#45;&gt;Node8</title>
<path fill="none" stroke="midnightblue" d="M606.945,-236.484C625.84,-229.335 650.563,-217.457 667,-200 696.326,-168.854 684.568,-149.024 706,-112 724.227,-80.5137 750.251,-47.0275 766.086,-27.6144"/>
<polygon fill="midnightblue" stroke="midnightblue" points="768.916,-29.684 772.58,-19.743 763.516,-25.2293 768.916,-29.684"/>
</g>
<!-- Node29&#45;&gt;Node13 -->
<g id="edge50" class="edge"><title>Node29&#45;&gt;Node13</title>
<path fill="none" stroke="midnightblue" d="M559.225,-236.403C534.568,-226.2 493.255,-209.105 465.098,-197.454"/>
<polygon fill="midnightblue" stroke="midnightblue" points="466.315,-194.17 455.736,-193.581 463.638,-200.638 466.315,-194.17"/>
</g>
<!-- Node30&#45;&gt;Node5 -->
<g id="edge58" class="edge"><title>Node30&#45;&gt;Node5</title>
<path fill="none" stroke="midnightblue" d="M251.278,-236.198C247.235,-212.717 239.759,-147.94 272,-112 290.854,-90.9822 369.433,-77.3513 414.967,-71.056"/>
<polygon fill="midnightblue" stroke="midnightblue" points="415.514,-74.514 424.962,-69.7184 414.586,-67.5759 415.514,-74.514"/>
</g>
<!-- Node30&#45;&gt;Node8 -->
<g id="edge59" class="edge"><title>Node30&#45;&gt;Node8</title>
<path fill="none" stroke="midnightblue" d="M249.871,-236.24C242.139,-212.864 224.916,-148.324 256,-112 320.803,-36.2729 646.824,-16.4931 749.195,-12.1095"/>
<polygon fill="midnightblue" stroke="midnightblue" points="749.623,-15.595 759.471,-11.6896 749.337,-8.60084 749.623,-15.595"/>
</g>
<!-- Node30&#45;&gt;Node13 -->
<g id="edge53" class="edge"><title>Node30&#45;&gt;Node13</title>
<path fill="none" stroke="midnightblue" d="M279.076,-236.403C310.566,-226.022 363.698,-208.506 399.058,-196.849"/>
<polygon fill="midnightblue" stroke="midnightblue" points="400.571,-200.036 408.972,-193.581 398.379,-193.388 400.571,-200.036"/>
</g>
<!-- Node30&#45;&gt;Node25 -->
<g id="edge56" class="edge"><title>Node30&#45;&gt;Node25</title>
<path fill="none" stroke="midnightblue" d="M263.316,-236.403C274.651,-226.958 293.073,-211.606 306.839,-200.134"/>
<polygon fill="midnightblue" stroke="midnightblue" points="309.262,-202.671 314.703,-193.581 304.78,-197.294 309.262,-202.671"/>
</g>
<!-- Node31 -->
<g id="node31" class="node"><title>Node31</title>
<g id="a_node31"><a xlink:href="../../de/dac/TransportInterface_8h.html" target="_top" xlink:title="../Transports/TransportInterface.h">
<polygon fill="none" stroke="black" points="-0.5,-56.5 -0.5,-75.5 162.5,-75.5 162.5,-56.5 -0.5,-56.5"/>
<text text-anchor="middle" x="81" y="-63.5" font-family="Helvetica,sans-Serif" font-size="10.00">../Transports/TransportInterface.h</text>
</a>
</g>
</g>
<!-- Node30&#45;&gt;Node31 -->
<g id="edge54" class="edge"><title>Node30&#45;&gt;Node31</title>
<path fill="none" stroke="midnightblue" d="M203.565,-239.209C156.818,-232.596 91.5703,-220.024 76,-200 50.0803,-166.666 63.7133,-113.15 73.6383,-85.2514"/>
<polygon fill="midnightblue" stroke="midnightblue" points="77.0239,-86.194 77.2936,-75.6026 70.4779,-83.7141 77.0239,-86.194"/>
</g>
<!-- Node32 -->
<g id="node32" class="node"><title>Node32</title>
<polygon fill="none" stroke="#bfbfbf" points="85.5,-169 85.5,-199 186.5,-199 186.5,-169 85.5,-169"/>
<text text-anchor="start" x="93.5" y="-187" font-family="Helvetica,sans-Serif" font-size="10.00">boost/property_tree</text>
<text text-anchor="middle" x="136" y="-176" font-family="Helvetica,sans-Serif" font-size="10.00">/ptree.hpp</text>
</g>
<!-- Node30&#45;&gt;Node32 -->
<g id="edge57" class="edge"><title>Node30&#45;&gt;Node32</title>
<path fill="none" stroke="midnightblue" d="M236.237,-236.403C219.724,-227.936 193.955,-214.72 172.68,-203.81"/>
<polygon fill="midnightblue" stroke="midnightblue" points="174.07,-200.59 163.575,-199.141 170.876,-206.818 174.07,-200.59"/>
</g>
<!-- Node31&#45;&gt;Node8 -->
<g id="edge55" class="edge"><title>Node31&#45;&gt;Node8</title>
<path fill="none" stroke="midnightblue" d="M162.552,-58.6998C317.178,-46.7545 646.674,-21.2998 749.017,-13.3935"/>
<polygon fill="midnightblue" stroke="midnightblue" points="749.58,-16.8606 759.28,-12.6007 749.04,-9.88139 749.58,-16.8606"/>
</g>
<!-- Node33&#45;&gt;Node13 -->
<g id="edge61" class="edge"><title>Node33&#45;&gt;Node13</title>
<path fill="none" stroke="midnightblue" d="M435.857,-236.403C435.716,-227.938 435.495,-214.728 435.314,-203.82"/>
<polygon fill="midnightblue" stroke="midnightblue" points="438.809,-203.521 435.143,-193.581 431.81,-203.638 438.809,-203.521"/>
</g>
</g>
</svg>
        <g id="navigator" transform="translate(0 0)" fill="#404254">
                <rect fill="#f2f5e9" fill-opacity="0.5" stroke="#606060" stroke-width=".5" x="0" y="0" width="60" height="60"/>
                <use id="zoomplus" xlink:href="#zoomPlus" x="17" y="9" onmousedown="handleZoom(evt,'in')"/>
                <use id="zoomminus" xlink:href="#zoomMin" x="42" y="9" onmousedown="handleZoom(evt,'out')"/>
                <use id="reset" xlink:href="#resetDef" x="30" y="36" onmousedown="handleReset()"/>
                <g id="arrowUp" xlink:href="#dirArrow" transform="translate(30 24)" onmousedown="handlePan(0,-1)">
                  <use xlink:href="#rim" fill="#404040">
                        <set attributeName="fill" to="#808080" begin="arrowUp.mouseover" end="arrowUp.mouseout"/>
                  </use>
                  <path fill="none" stroke="white" stroke-width="1.5" d="M0,-3.0v7 M-2.5,-0.5L0,-3.0L2.5,-0.5"/>
                </g>
                <g id="arrowRight" xlink:href="#dirArrow" transform="rotate(90) translate(36 -43)" onmousedown="handlePan(1,0)">
                  <use xlink:href="#rim" fill="#404040">
                        <set attributeName="fill" to="#808080" begin="arrowRight.mouseover" end="arrowRight.mouseout"/>
                  </use>
                  <path fill="none" stroke="white" stroke-width="1.5" d="M0,-3.0v7 M-2.5,-0.5L0,-3.0L2.5,-0.5"/>
                </g>
                <g id="arrowDown" xlink:href="#dirArrow" transform="rotate(180) translate(-30 -48)" onmousedown="handlePan(0,1)">
                  <use xlink:href="#rim" fill="#404040">
                        <set attributeName="fill" to="#808080" begin="arrowDown.mouseover" end="arrowDown.mouseout"/>
                  </use>
                  <path fill="none" stroke="white" stroke-width="1.5" d="M0,-3.0v7 M-2.5,-0.5L0,-3.0L2.5,-0.5"/>
                </g>
                <g id="arrowLeft" xlink:href="#dirArrow" transform="rotate(270) translate(-36 17)" onmousedown="handlePan(-1,0)">
                  <use xlink:href="#rim" fill="#404040">
                        <set attributeName="fill" to="#808080" begin="arrowLeft.mouseover" end="arrowLeft.mouseout"/>
                  </use>
                  <path fill="none" stroke="white" stroke-width="1.5" d="M0,-3.0v7 M-2.5,-0.5L0,-3.0L2.5,-0.5"/>
                </g>
        </g>
        <svg viewBox="0 0 15 15" width="100%" height="30px" preserveAspectRatio="xMaxYMin meet">
         <g id="arrow_out" transform="scale(0.3 0.3)">
          <a xlink:href="MonitoringFactory_8cxx__incl_org.svg" target="_base">
           <rect id="button" ry="5" rx="5" y="6" x="6" height="38" width="38"
                fill="#f2f5e9" fill-opacity="0.5" stroke="#606060" stroke-width="1.0"/>
           <path id="arrow"
             d="M 11.500037,31.436501 C 11.940474,20.09759 22.043105,11.32322 32.158766,21.979434 L 37.068811,17.246167 C 37.068811,17.246167 37.088388,32 37.088388,32 L 22.160133,31.978069 C 22.160133,31.978069 26.997745,27.140456 26.997745,27.140456 C 18.528582,18.264221 13.291696,25.230495 11.500037,31.436501 z"
             style="fill:#404040;"/>
          </a>
         </g>
        </svg>
</svg>
