<?xml version="1.0" encoding="UTF-8" standalone="no"?>
<!DOCTYPE svg PUBLIC "-//W3C//DTD SVG 1.1//EN"
 "http://www.w3.org/Graphics/SVG/1.1/DTD/svg11.dtd">
<!-- Generated by graphviz version 2.36.0 (20140111.2315)
 -->
<!-- Title: /home/travis/build/AliceO2Group/Monitoring/src/Backends/Noop.h Pages: 1 -->
<svg width="364pt" height="274pt"
 viewBox="0.00 0.00 364.00 274.00" xmlns="http://www.w3.org/2000/svg" xmlns:xlink="http://www.w3.org/1999/xlink">
<g id="graph0" class="graph" transform="scale(1 1) rotate(0) translate(4 270)">
<title>/home/travis/build/AliceO2Group/Monitoring/src/Backends/Noop.h</title>
<!-- Node1 -->
<g id="node1" class="node"><title>Node1</title>
<polygon fill="#bfbfbf" stroke="black" points="0,-224.5 0,-265.5 128,-265.5 128,-224.5 0,-224.5"/>
<text text-anchor="start" x="8" y="-253.5" font-family="Helvetica,sans-Serif" font-size="10.00">/home/travis/build</text>
<text text-anchor="start" x="8" y="-242.5" font-family="Helvetica,sans-Serif" font-size="10.00">/AliceO2Group/Monitoring</text>
<text text-anchor="middle" x="64" y="-231.5" font-family="Helvetica,sans-Serif" font-size="10.00">/src/Backends/Noop.h</text>
</g>
<!-- Node2 -->
<g id="node2" class="node"><title>Node2</title>
<g id="a_node2"><a xlink:href="../../df/d83/Backend_8h.html" target="_top" xlink:title="Monitoring/Backend.h">
<polygon fill="none" stroke="black" points="8.5,-168.5 8.5,-187.5 119.5,-187.5 119.5,-168.5 8.5,-168.5"/>
<text text-anchor="middle" x="64" y="-175.5" font-family="Helvetica,sans-Serif" font-size="10.00">Monitoring/Backend.h</text>
</a>
</g>
</g>
<!-- Node1&#45;&gt;Node2 -->
<g id="edge1" class="edge"><title>Node1&#45;&gt;Node2</title>
<path fill="none" stroke="midnightblue" d="M64,-224.498C64,-216.065 64,-206.235 64,-197.874"/>
<polygon fill="midnightblue" stroke="midnightblue" points="67.5001,-197.652 64,-187.652 60.5001,-197.653 67.5001,-197.652"/>
</g>
<!-- Node3 -->
<g id="node3" class="node"><title>Node3</title>
<polygon fill="none" stroke="#bfbfbf" points="41,-56.5 41,-75.5 87,-75.5 87,-56.5 41,-56.5"/>
<text text-anchor="middle" x="64" y="-63.5" font-family="Helvetica,sans-Serif" font-size="10.00">chrono</text>
</g>
<!-- Node2&#45;&gt;Node3 -->
<g id="edge2" class="edge"><title>Node2&#45;&gt;Node3</title>
<path fill="none" stroke="midnightblue" d="M64,-168.368C64,-150.617 64,-109.666 64,-85.5974"/>
<polygon fill="midnightblue" stroke="midnightblue" points="67.5001,-85.5914 64,-75.5914 60.5001,-85.5915 67.5001,-85.5914"/>
</g>
<!-- Node4 -->
<g id="node4" class="node"><title>Node4</title>
<polygon fill="none" stroke="#bfbfbf" points="215.5,-0.5 215.5,-19.5 256.5,-19.5 256.5,-0.5 215.5,-0.5"/>
<text text-anchor="middle" x="236" y="-7.5" font-family="Helvetica,sans-Serif" font-size="10.00">string</text>
</g>
<!-- Node2&#45;&gt;Node4 -->
<g id="edge3" class="edge"><title>Node2&#45;&gt;Node4</title>
<path fill="none" stroke="midnightblue" d="M57.1389,-168.328C41.0413,-146.874 4.23617,-90.5557 32,-56 53.3665,-29.4066 153.489,-17.5974 205.084,-13.2046"/>
<polygon fill="midnightblue" stroke="midnightblue" points="205.626,-16.6722 215.311,-12.3771 205.061,-9.69504 205.626,-16.6722"/>
</g>
<!-- Node5 -->
<g id="node5" class="node"><title>Node5</title>
<g id="a_node5"><a xlink:href="../../d9/d92/Metric_8h.html" target="_top" xlink:title="Monitoring/Metric.h">
<polygon fill="none" stroke="black" points="143,-112.5 143,-131.5 243,-131.5 243,-112.5 143,-112.5"/>
<text text-anchor="middle" x="193" y="-119.5" font-family="Helvetica,sans-Serif" font-size="10.00">Monitoring/Metric.h</text>
</a>
</g>
</g>
<!-- Node2&#45;&gt;Node5 -->
<g id="edge4" class="edge"><title>Node2&#45;&gt;Node5</title>
<path fill="none" stroke="midnightblue" d="M84.4404,-168.444C105.67,-159.557 139.099,-145.563 163.255,-135.451"/>
<polygon fill="midnightblue" stroke="midnightblue" points="164.782,-138.606 172.655,-131.516 162.079,-132.149 164.782,-138.606"/>
</g>
<!-- Node5&#45;&gt;Node3 -->
<g id="edge6" class="edge"><title>Node5&#45;&gt;Node3</title>
<path fill="none" stroke="midnightblue" d="M172.56,-112.444C151.33,-103.557 117.901,-89.5632 93.745,-79.4514"/>
<polygon fill="midnightblue" stroke="midnightblue" points="94.9207,-76.1493 84.3448,-75.5164 92.2177,-82.6064 94.9207,-76.1493"/>
</g>
<!-- Node5&#45;&gt;Node4 -->
<g id="edge5" class="edge"><title>Node5&#45;&gt;Node4</title>
<path fill="none" stroke="midnightblue" d="M218.504,-112.472C234.987,-105.478 255.139,-93.792 265,-76 273.845,-60.0415 262.839,-40.8681 251.939,-27.4974"/>
<polygon fill="midnightblue" stroke="midnightblue" points="254.244,-24.8199 245.001,-19.6411 248.997,-29.4535 254.244,-24.8199"/>
</g>
<!-- Node6 -->
<g id="node6" class="node"><title>Node6</title>
<polygon fill="none" stroke="#bfbfbf" points="313,-56.5 313,-75.5 357,-75.5 357,-56.5 313,-56.5"/>
<text text-anchor="middle" x="335" y="-63.5" font-family="Helvetica,sans-Serif" font-size="10.00">vector</text>
</g>
<!-- Node5&#45;&gt;Node6 -->
<g id="edge7" class="edge"><title>Node5&#45;&gt;Node6</title>
<path fill="none" stroke="midnightblue" d="M215.5,-112.444C239.077,-103.478 276.322,-89.314 302.964,-79.1827"/>
<polygon fill="midnightblue" stroke="midnightblue" points="304.502,-82.3424 312.605,-75.5164 302.014,-75.7995 304.502,-82.3424"/>
</g>
<!-- Node7 -->
<g id="node7" class="node"><title>Node7</title>
<polygon fill="none" stroke="#bfbfbf" points="105,-56.5 105,-75.5 197,-75.5 197,-56.5 105,-56.5"/>
<text text-anchor="middle" x="151" y="-63.5" font-family="Helvetica,sans-Serif" font-size="10.00">boost/variant.hpp</text>
</g>
<!-- Node5&#45;&gt;Node7 -->
<g id="edge8" class="edge"><title>Node5&#45;&gt;Node7</title>
<path fill="none" stroke="midnightblue" d="M186.065,-112.083C180.071,-104.377 171.248,-93.0333 163.952,-83.6531"/>
<polygon fill="midnightblue" stroke="midnightblue" points="166.709,-81.4958 157.806,-75.7511 161.183,-85.7934 166.709,-81.4958"/>
</g>
<!-- Node8 -->
<g id="node8" class="node"><title>Node8</title>
<g id="a_node8"><a xlink:href="../../d9/d33/Tag_8h.html" target="_top" xlink:title="Tag.h">
<polygon fill="none" stroke="black" points="215.5,-56.5 215.5,-75.5 256.5,-75.5 256.5,-56.5 215.5,-56.5"/>
<text text-anchor="middle" x="236" y="-63.5" font-family="Helvetica,sans-Serif" font-size="10.00">Tag.h</text>
</a>
</g>
</g>
<!-- Node5&#45;&gt;Node8 -->
<g id="edge9" class="edge"><title>Node5&#45;&gt;Node8</title>
<path fill="none" stroke="midnightblue" d="M200.101,-112.083C206.237,-104.377 215.27,-93.0333 222.739,-83.6531"/>
<polygon fill="midnightblue" stroke="midnightblue" points="225.54,-85.7542 229.032,-75.7511 220.064,-81.3936 225.54,-85.7542"/>
</g>
<!-- Node8&#45;&gt;Node4 -->
<g id="edge10" class="edge"><title>Node8&#45;&gt;Node4</title>
<path fill="none" stroke="midnightblue" d="M236,-56.083C236,-49.0059 236,-38.8611 236,-29.9865"/>
<polygon fill="midnightblue" stroke="midnightblue" points="239.5,-29.751 236,-19.7511 232.5,-29.7511 239.5,-29.751"/>
</g>
</g>
</svg>
